<?xml version="1.0" encoding="utf-8"?>
<!-- Generator: Adobe Illustrator 27.5.0, SVG Export Plug-In . SVG Version: 6.00 Build 0)  -->
<svg version="1.1" xmlns="http://www.w3.org/2000/svg" xmlns:xlink="http://www.w3.org/1999/xlink" x="0px" y="0px"
	 viewBox="0 0 750 500" style="enable-background:new 0 0 750 500;" xml:space="preserve">
<g id="BACKGROUND">
	<rect style="fill:#20024F;" width="750" height="500"/>
</g>
<g id="OBJECTS">
	<g>
		<g>
			<defs>
				<rect id="SVGID_1_" width="750" height="500"/>
			</defs>
			<clipPath id="SVGID_00000137811288373431317910000007557574040446302651_">
				<use xlink:href="#SVGID_1_"  style="overflow:visible;"/>
			</clipPath>
			<g style="clip-path:url(#SVGID_00000137811288373431317910000007557574040446302651_);">
				<g>
					<g>
						<path style="fill:#270A66;" d="M502.74-40.48c31.13,76.43,36.57,163.07,15.26,242.8c46.37-46.98,70.93-114.66,65.51-180.44
							c15.15,66.54,6.5,138.24-24.05,199.26c-30.55,61.02-82.77,110.91-145.13,138.64c28.76-29.16,49.25-66.4,58.5-106.3
							c-32.58,60.3-86.62,108.71-150.12,134.5c-63.5,25.79-135.99,28.75-201.39,8.24c29.76,24.26,67.67,38.34,106.05,39.4
							c-84.11,12.95-171.43,4.53-251.52-24.23C-62.63,268.47-70.17,119.32-77.52-28.5C98.95-80.66,284.06-103.43,502.74-40.48z"/>
						<path style="fill:#270A66;" d="M534.99-18.58c12.24,31.67,20.16,65,23.46,98.79c2.92-21.81,5.84-43.62,8.76-65.44
							c1.14-8.53,2.16-17.76-2.11-25.23C560.85-17.93,548.98-21.37,534.99-18.58z"/>
						<path style="fill:#270A66;" d="M603.79-30.96c24.82,86.9,26.83,180.21,5.8,268.11c44.68-85.08,57.43-186.46,35.21-279.95
							C632.21-38.75,619.63-34.71,603.79-30.96z"/>
						<path style="fill:#270A66;" d="M690.45,34.09c-3.06,65.04-13.14,130.25-36.38,191.08c-23.24,60.82-60.18,117.26-111.05,157.9
							c63.42-29.54,115.06-83.55,141.72-148.23C711.4,170.16,712.83,95.46,690.45,34.09z"/>
						<path style="fill:#270A66;" d="M708.03-36.8c16.89,65.98,33.92,133.58,27.38,201.37c20.08-64.42,24.31-133.71,12.22-200.09
							C737.36-33.76,727.07-32,708.03-36.8z"/>
						<path style="fill:#270A66;" d="M700.14,389.82c43.44-79.52,68.65-168.93,73.15-259.43
							C806.66,226.15,774.74,341.07,700.14,389.82z"/>
					</g>
					<g>
						<path style="fill:#442F9C;" d="M122.41-12.87C85.07,7.23,51.86,36.35,31.68,73.51S5.41,156.24,20,195.9
							c13.52,36.76,43.42,65.81,77.4,85.56s72.1,31.19,110.03,41.65c-8.28-7.34-16.57-14.68-24.85-22.03
							c52.36,11.93,110.48-5.56,147.41-44.36s51.31-97.47,36.47-148.81c9,11.15,18,22.31,27.01,33.46
							C390.69,88.53,362.6,37.56,319.32,6.8S208.89-59.43,122.41-12.87z"/>
						<path style="fill:#442F9C;" d="M310.87-10.88c43.22,14.78,79.26,49.31,95.88,91.86c6.81-30.72-4-64.72-27.3-85.86
							c-23.3-21.14-58.18-28.63-88.1-18.89C293.08-21.91,293.37-16.87,310.87-10.88z"/>
						<path style="fill:#442F9C;" d="M75.96-2.31C38,19.94,6.67,53.33-13.13,92.61c2.54-25.65,8.54-52.01,24.63-72.16
							S55.88-11.85,75.96-2.31z"/>
						<path style="fill:#442F9C;" d="M4.12,206.55c17.15,47.11,55.82,85.9,102.88,103.2c-28.55,5.49-59.48-3.24-80.96-22.84
							S-6.93,237.3,4.12,206.55z"/>
						<path style="fill:#442F9C;" d="M399.04,223.8c-44.55,72.95-121.42,116.39-197.26,111.47c39.94,17.02,85.21,20.09,124.46,0.96
							C365.49,317.1,397.27,273.65,399.04,223.8z"/>
						<path style="fill:#442F9C;" d="M425.56,53.62c24.67,58.27,21.08,127.77-9.45,183.2c31.54-17.74,47.93-55.82,47.02-91.99
							C462.21,108.65,446.42,74.32,425.56,53.62z"/>
						<path style="fill:#442F9C;" d="M221.14,368.3c-68.72,4.62-138.83-14.81-195.36-54.15c18.28,29.41,47.02,52.17,79.83,63.22
							C138.42,388.42,175.07,387.69,221.14,368.3z"/>
						<path style="fill:#442F9C;" d="M-10.54,321.66c9.68,23.76,28.22,43.17,49.63,57.29c21.41,14.12,45.68,23.34,70.19,30.92
							c-45.03,6.32-92.63-9.37-125.08-41.23C-18.67,351.77-16.71,334.09-10.54,321.66z"/>
						<path style="fill:#442F9C;" d="M427.26-8.06c35.47,24.46,61.53,62.23,71.8,104.07c2.07-42.16-1.37-84.59-10.21-125.86
							C471.7-19.8,451.91-14.33,427.26-8.06z"/>
					</g>
					<g>
						<path style="fill:#6F6DDE;" d="M184.29,41.72c-16.6-1.05-33.17,4.75-46.68,14.15s-24.16,22.22-32.84,35.96
							c-14.04,22.23-23.42,48.22-20.59,74.14c3.33,30.56,24.38,58.44,52.87,71.95s63.44,12.71,91.88-0.89s50.07-39.42,59.32-68.81
							c9.59-30.49,5.66-65.39-13.24-91.49C256.12,50.62,221.79,34.91,184.29,41.72z"/>
						<path style="fill:#6F6DDE;" d="M166.48,49.51c20.53-8.11,42.82-11.71,64.86-10.46c-21.99-9.59-47.36-11.2-70.38-4.47
							s-43.53,21.75-56.9,41.67C120.75,62.09,143.31,58.67,166.48,49.51z"/>
						<path style="fill:#6F6DDE;" d="M93.02,174.17c-7.87-20.68-10.31-43.39-7.01-65.27c-7.17,20.87-9.79,43.76-4.25,65.12
							s19.96,40.92,40.17,49.78"/>
						<path style="fill:#6F6DDE;" d="M202.72,260.43c-14.98,6.17-32,7.27-47.64,3.07c-15.65-4.2-29.83-13.67-39.7-26.51
							C138.75,251.52,165.52,260.59,202.72,260.43z"/>
						<path style="fill:#6F6DDE;" d="M61.27,113.75c-10.61,32.5-7.84,69.16,7.53,99.7c-14.53-14.96-26.26-33.65-28.54-54.38
							C37.99,138.33,46.84,115.62,61.27,113.75z"/>
						<path style="fill:#6F6DDE;" d="M269.95,27.21c23.97,15.95,42.35,40.12,51.31,67.48c8.96,27.36,8.43,57.72-1.46,84.76
							c19.74-25.46,26.25-60.64,16.94-91.48S302.53,31.43,269.95,27.21z"/>
						<path style="fill:#6F6DDE;" d="M308.1,192.02c-7.53,34.89-30.76,66.07-62.04,83.27c19.46-1.78,38-12,49.88-27.52
							C307.83,232.26,312.87,211.69,308.1,192.02z"/>
						<path style="fill:#6F6DDE;" d="M170.12,5.34C130,13.33,94.33,41.13,76.8,78.09c1.68-22.11,12.55-43.38,29.49-57.69
							S146.02-1.07,170.12,5.34z"/>
						<path style="fill:#6F6DDE;" d="M300.57,126.53c5.36,45.1-18.71,92.31-58.35,114.46c15.32-21.02,27.03-44.67,35.04-69.33
							C288.07,159.73,295.49,144.75,300.57,126.53z"/>
					</g>
					<g>
						<circle style="fill:#FFFFFF;" cx="188.48" cy="143.89" r="86.99"/>
						<g>
							<path style="fill:#C2D6F9;" d="M138.39,81.78c-10.11,5.33-17.3,15.84-18.62,27.19c-0.19,1.6-0.26,3.26,0.24,4.79
								c0.49,1.54,1.65,2.94,3.21,3.34c1.88,0.49,3.88-0.59,5.11-2.09c1.23-1.5,1.88-3.39,2.63-5.18
								c2.91-6.98,7.68-13.18,13.69-17.78c2.32-1.78,5.06-3.75,5.21-6.66c0.14-2.86-2.56-5.26-5.4-5.65
								C141.62,79.35,138.8,80.5,138.39,81.78z"/>
							<path style="fill:#C2D6F9;" d="M111.47,126.36c-4.02,7.04-5.36,15.57-3.72,23.51c0.3,1.46,0.72,2.94,1.63,4.13
								c0.91,1.18,2.4,2.02,3.88,1.77c2.71-0.46,3.6-3.83,3.92-6.56c0.65-5.6,1.3-11.21,1.96-16.81c0.19-1.67,0.39-3.4-0.06-5.03
								c-0.45-1.63-1.69-3.15-3.36-3.41C114.05,123.71,112.14,125.18,111.47,126.36z"/>
							<path style="fill:#C2D6F9;" d="M127.58,147.56c-0.55-7.73-0.75-15.62,1.22-23.12s6.41-14.65,13.22-18.35
								c4.64-2.52,11.23-2.9,14.49,1.25c2.02,2.56,2.18,6.21,1.27,9.34s-2.76,5.9-4.49,8.66c-3.49,5.57-6.73,11.59-7.12,18.15
								c-0.32,5.37,0.92,11.77-3.14,15.3c-3.5,3.04-9.37,1.69-12.35-1.85C127.69,153.4,127.05,148.41,127.58,147.56z"/>
							<path style="fill:#C2D6F9;" d="M183.01,68.18c-7.27-0.61-14.75,2.06-19.98,7.14c-1.93,1.88-3.62,4.19-4,6.86
								s0.88,5.7,3.4,6.68c3.39,1.32,6.85-1.38,10.25-2.66c2.78-1.05,5.81-1.16,8.77-1.39c2.96-0.23,6.02-0.63,8.56-2.17
								c2.54-1.54,4.44-4.5,3.88-7.42c-0.4-2.09-1.99-3.81-3.85-4.86C188.17,69.32,186.11,68.44,183.01,68.18z"/>
							<path style="fill:#C2D6F9;" d="M254.73,137.9c-3.38,12.04-6.76,24.07-10.13,36.11c-0.54,1.94-1.09,4.02-0.43,5.93
								c0.98,2.84,4.46,4.22,7.42,3.69c2.96-0.53,5.45-2.52,7.55-4.68c8.61-8.85,12.81-21.79,11.04-34.01
								c-0.44-3.01-1.25-6.05-3.1-8.46c-1.85-2.41-4.9-4.08-7.9-3.59S253.64,136.45,254.73,137.9z"/>
							<path style="fill:#C2D6F9;" d="M243.75,191.23c-3.67,5.03-8.49,9.22-13.99,12.14c-2.01,1.07-4.16,2.01-5.68,3.71
								s-2.17,4.44-0.77,6.24c1.51,1.94,4.46,1.82,6.84,1.24c6.75-1.65,12.9-5.62,17.19-11.09c1.36-1.73,2.55-3.67,2.9-5.85
								c0.34-2.17-0.32-4.61-2.1-5.91C246.36,190.43,243.45,190.76,243.75,191.23z"/>
							<path style="fill:#C2D6F9;" d="M183.21,218.74c-8.26-2.82-16.52-5.65-24.79-8.47c-0.95-0.32-1.97-0.65-2.93-0.37
								c-1.43,0.42-2.19,2.12-1.97,3.6s1.16,2.74,2.2,3.82c6.41,6.65,16.33,8.16,25.5,9.3c1.73,0.22,3.52,0.42,5.18-0.12
								c1.65-0.54,3.12-2.07,3-3.81c-0.11-1.52-1.39-2.75-2.83-3.26C185.13,218.92,183.62,218.88,183.21,218.74z"/>
							<path style="fill:#C2D6F9;" d="M214.26,157.16c-1.55,5.79-6.52,10.03-11.72,13.01c-5.2,2.98-10.92,5.12-15.7,8.73
								s-8.63,9.29-7.91,15.24c0.63,5.15,4.66,9.45,9.45,11.44c4.79,1.99,10.2,1.95,15.3,1.04c10.4-1.85,20.13-7.28,27.17-15.16
								c4.38-4.9,7.79-10.91,8.47-17.45c0.68-6.54-1.74-13.6-7.07-17.45C226.93,152.71,218.68,152.95,214.26,157.16z"/>
						</g>
					</g>
				</g>
				<g>
					<path style="fill:#20024F;" d="M393.178,131.703c-62.457,1.133-124.914,2.266-187.371,3.4
						c5.912-11.783,23.903-16.079,32.459-6.05c3.69-12.081,14.618-21.634,27.084-23.677c12.466-2.043,25.871,3.524,33.224,13.796
						c8.352-9.596,25.189-9.862,33.839-0.534c2.762-12.847,16.052-22.51,29.125-21.178c13.073,1.332,24.139,13.478,24.253,26.618
						C390.488,122.773,393.65,126.851,393.178,131.703z"/>
					<path style="fill:#20024F;" d="M10.518,94.874c60.713-1.169,121.427-2.337,182.14-3.506
						c-3.937-5.692-9.679-12.313-16.579-12.845c-6.9-0.532-13.982,2.193-18.745,7.214c-3.246-14.363-13.337-29.265-27.777-32.147
						c-14.44-2.883-30.303,3.429-38.815,15.444C86.455,52.87,68.618,41.596,52.179,44.66C35.74,47.724,23.162,64.667,24.986,81.289
						c-3.941-2.062-9.083-1.56-12.551,1.227C8.968,85.302,9.353,90.581,10.518,94.874z"/>
					<path d="M706.577,63.088c-30.32,0.084-60.64,0.168-90.96,0.252c-1.261-3.169,0.911-7.667,3.261-10.139
						c2.35-2.472,6.179-3.415,9.408-2.316c1.521-8.685,9.283-15.885,18.058-16.75c8.775-0.865,17.793,4.68,20.981,12.901
						c0.215-7.517,7.884-13.924,15.32-12.799c7.435,1.125,12.865,9.514,10.847,16.758c3.429-2.087,8.147-1.791,11.29,0.707
						C707.923,54.2,707.837,59.276,706.577,63.088z"/>
					<path style="fill:#20024F;" d="M81.398,237.584l105.742-0.117c-0.001-0.046-0.001-0.091-0.003-0.136
						c-0.168-7.224-6.521-12.764-13.734-12.339l-5.567,0.328c-1.313-6.005-6.714-10.885-12.821-11.585
						c-6.107-0.699-12.472,2.833-15.108,8.386c-5.703-7.702-15.894-11.804-25.343-10.202s-17.717,8.835-20.563,17.986
						c-2.513-2.821-7.037-3.595-10.346-1.771C80.347,229.959,80.355,233.953,81.398,237.584z"/>
					<path d="M697.438,273.839l105.742-0.117c-0.001-0.046-0.001-0.091-0.003-0.136c-0.168-7.224-6.521-12.764-13.734-12.339
						l-5.567,0.328c-1.313-6.005-6.714-10.885-12.821-11.585c-6.107-0.699-12.472,2.833-15.108,8.386
						c-5.703-7.702-15.894-11.804-25.343-10.202c-9.448,1.602-17.717,8.835-20.563,17.986c-2.513-2.821-7.037-3.595-10.346-1.771
						C696.387,266.214,696.394,270.208,697.438,273.839z"/>
				</g>
			</g>
		</g>
		<g>
			<g>
				<g>
					<g>
						<g>
							
								<rect x="460.519" y="322.021" transform="matrix(0.9926 -0.1213 0.1213 0.9926 -38.2033 58.5673)" width="2.75" height="42.029"/>
							<polygon points="455.642,325.697 464.642,324.807 458.812,313.207 							"/>
						</g>
						<g>
							
								<rect x="482.204" y="322.128" transform="matrix(0.9989 -0.0478 0.0478 0.9989 -15.8545 23.5152)" width="2.75" height="42.032"/>
							<polygon points="478.602,325.357 487.642,325.127 482.692,313.137 							"/>
						</g>
						<g>
							
								<rect x="436.52" y="324.012" transform="matrix(0.9926 -0.1213 0.1213 0.9926 -38.6112 55.6526)" width="2.75" height="42.029"/>
							<polygon points="431.642,327.687 440.642,326.797 434.812,315.187 							"/>
						</g>
						<g>
							
								<rect x="414.919" y="326.916" transform="matrix(0.9774 -0.2115 0.2115 0.9774 -64.1752 95.9266)" width="2.75" height="42.031"/>
							<polygon points="408.472,331.207 417.352,329.497 410.492,318.477 							"/>
						</g>
						<polygon points="408.472,337.297 489.202,330.947 489.152,332.907 409.082,339.387 						"/>
						<polygon points="411.122,353.737 491.462,343.637 491.502,345.597 411.822,355.797 						"/>
					</g>
					<g>
						<g>
							
								<rect x="325.657" y="347.905" transform="matrix(0.9763 -0.2164 0.2164 0.9763 -72.0839 79.5097)" width="2.75" height="42.03"/>
							<polygon points="319.15,352.22 328.02,350.47 321.1,339.48 							"/>
						</g>
						<g>
							
								<rect x="347.246" y="345.88" transform="matrix(0.9896 -0.1439 0.1439 0.9896 -49.1758 53.9953)" width="2.75" height="42.03"/>
							<polygon points="341.98,349.67 350.95,348.58 344.86,337.11 							"/>
						</g>
						<g>
							
								<rect x="301.956" y="352.195" transform="matrix(0.9763 -0.2164 0.2164 0.9763 -73.576 74.4853)" width="2.75" height="42.03"/>
							<polygon points="295.45,356.52 304.32,354.76 297.4,343.78 							"/>
						</g>
						<g>
							<polygon points="287.22,401.39 274.41,359.07 277.03,358.18 289.84,400.5 							"/>
							<polygon points="272.74,362.99 281.41,360.29 273.52,349.39 							"/>
						</g>
						<polygon points="273.32,368.32 353.07,354.21 353.2,356.17 274.13,370.34 						"/>
						<polygon points="275.83,382.74 356.08,371.89 356.14,373.85 276.56,384.79 						"/>
					</g>
					<g>
						<g>
							
								<rect x="229.925" y="371.142" transform="matrix(0.9939 -0.1106 0.1106 0.9939 -41.9718 28.0014)" width="2.75" height="42.031"/>
							<polygon points="225.245,374.71 234.256,373.911 228.549,362.249 							"/>
						</g>
						<g>
							
								<rect x="251.591" y="371.451" transform="matrix(0.9993 -0.0372 0.0372 0.9993 -14.4107 9.6722)" width="2.75" height="42.031"/>
							<polygon points="248.214,374.61 257.258,374.489 252.43,362.436 							"/>
						</g>
						<g>
							
								<rect x="205.909" y="372.872" transform="matrix(0.9939 -0.1107 0.1107 0.9939 -42.3264 25.3652)" width="2.75" height="42.031"/>
							<polygon points="201.23,376.443 210.24,375.654 204.534,363.981 							"/>
						</g>
						<g>
							
								<rect x="184.265" y="375.496" transform="matrix(0.9796 -0.2011 0.2011 0.9796 -75.9456 45.4325)" width="2.75" height="42.028"/>
							<polygon points="178.03,379.716 186.923,378.1 180.18,367.003 							"/>
						</g>
						<polygon points="177.962,385.812 258.759,380.316 258.689,382.277 178.55,387.9 						"/>
						<polygon points="180.437,402.282 260.884,393.033 260.896,394.99 181.111,404.345 						"/>
					</g>
					<g>
						<g>
							<polygon points="388.906,377.58 374.436,305.98 326.026,273.76 297.186,224.58 333.916,270.36 383.606,301.21 
								416.006,375.69 							"/>
							<polygon points="357.296,288.16 357.146,266.93 343.456,243.83 341.226,225.43 347.046,243.73 361.646,266.4 363.856,290.78 
															"/>
							<polygon points="324.526,266.7 308.716,267.48 290.006,255.65 307.176,269.38 326.346,270.81 							"/>
							<polygon points="319.666,255.33 319.196,239.23 316.466,227.09 316.636,239.52 315.516,250.53 							"/>
							<polygon points="308.636,242.43 291.166,236.77 310.966,245.75 							"/>
							<polygon points="344.256,242.09 328.886,233.16 344.496,245.02 							"/>
							<polygon points="355.946,259.19 361.166,250.83 361.896,237.86 358.656,250.42 353.686,256.59 							"/>
						</g>
						<g>
							<polygon points="383.896,324.32 399.706,286.16 387.356,251.88 401.046,224.58 393.306,252.84 408.036,287.22 
								392.806,333.47 							"/>
							<polygon points="389.436,249.89 382.646,240.28 380.066,228.93 379.036,241.43 388.806,255.63 							"/>
							<polygon points="398.596,278.8 384.336,271.32 376.706,260.22 382.226,272.47 399.076,281.6 							"/>
							<polygon points="380.826,268.92 370.696,264.82 382.266,271.32 							"/>
							<polygon points="395.186,240.82 404.646,237.57 413.286,232.05 405.686,239.79 394.376,244.27 							"/>
							<polygon points="399.486,270.76 408.166,258.73 413.496,246.87 410.486,260.36 401.876,274.25 							"/>
						</g>
						<g>
							<polygon points="387.216,339.04 347.316,329.47 322.106,309.15 299.516,302.12 319.516,311.76 341.856,332.85 
								387.226,348.95 							"/>
							<polygon points="340.196,325.95 339.726,315.76 329.516,298.86 344.306,314.98 347.576,331.38 							"/>
							<polygon points="330.366,320.67 313.406,320.64 298.736,316.98 314.126,323.04 332.746,323.41 							"/>
							<polygon points="314.076,307.65 308.466,296.63 317.306,308.51 							"/>
							<polygon points="339.346,312.13 342.256,301.62 342.476,314.32 							"/>
						</g>
					</g>
				</g>
				<g>
					<g>
						
							<rect x="689.619" y="350.254" transform="matrix(0.1072 -0.9942 0.9942 0.1072 284.8463 1020.4692)" width="42.028" height="2.75"/>
						<polygon points="708.5,333.34 717.47,334.51 714.43,321.89 						"/>
					</g>
					<g>
						
							<rect x="710.697" y="355.272" transform="matrix(0.1802 -0.9836 0.9836 0.1802 249.0567 1012.1191)" width="42.029" height="2.75"/>
						<polygon points="730.95,338.22 739.8,340.05 737.7,327.24 						"/>
					</g>
					<g>
						
							<rect x="665.8" y="346.745" transform="matrix(0.1072 -0.9942 0.9942 0.1072 267.0698 993.6552)" width="42.029" height="2.75"/>
						<polygon points="684.68,329.83 693.64,331 690.6,318.38 						"/>
					</g>
					<g>
						
							<rect x="644.13" y="344.702" transform="matrix(0.0159 -0.9999 0.9999 0.0159 308.5432 1005.6391)" width="42.031" height="2.75"/>
						<polygon points="661.32,327.99 670.36,328.35 666.17,316.06 						"/>
					</g>
					<polygon points="659.93,333.93 740,346.07 739.51,347.97 660.05,336.1 					"/>
					<polygon points="658.78,350.55 739.32,358.94 738.91,360.86 658.99,352.71 					"/>
				</g>
			</g>
			<g>
				<polygon points="750,386.42 750,500 0,500 0,394.98 225.23,412.1 408.92,363 483.82,363.8 700.92,366.13 				"/>
				<g>
					<g>
						<polygon style="fill:#C14720;" points="433.81,405.85 403.97,406.36 347.82,428.36 315.19,434.94 287.63,440.5 323.96,424.3 
							352.88,417.74 379.69,408.89 420.62,402.73 						"/>
						<polyline style="fill:#C14720;" points="499.75,377.28 470.73,377.97 434.27,390.06 414.48,396.12 464.51,377.58 500.41,376 
													"/>
						<polygon style="fill:#C14720;" points="405.4,381.27 378.91,390.01 358.77,404.58 375.2,386.04 						"/>
					</g>
					<polygon style="fill:#C14720;" points="483.82,363.8 390.05,372.85 214.15,424.44 189.37,424.04 225.39,417.58 0,404.75 
						0,394.98 225.23,412.1 408.92,363 					"/>
				</g>
				<polygon style="fill:#1E0B42;" points="647.92,418.59 539.92,500 0,500 0,471.65 256.34,465.58 486.15,422.72 403.06,406.48 
					513.33,381.79 470.39,378.11 534.07,363.15 551.95,363 525.53,374.14 563.01,378.87 516.29,394.27 				"/>
			</g>
			<g>
				<g>
					<g>
						<path style="fill:#C14720;" d="M152.889,398.081c-3.973-36.891-28.149-51.709-64.073-51.709
							c-37.05,0-60.494,17.643-64.073,53.642c-2.857,28.797,30.103,34.31,66.028,34.31
							C126.694,434.324,155.438,421.694,152.889,398.081z"/>
						<path d="M151.444,404.189c-4.005-37.72-28.361-52.867-64.562-52.867c-37.337,0-60.961,18.036-64.562,54.843
							c-2.879,29.445,30.337,35.085,66.538,35.085C125.059,441.25,154.004,428.344,151.444,404.189z"/>
					</g>
					<g>
						<path style="fill:#C14720;" d="M119.726,388.681c-7.436,0.669-14.871,1.349-22.307,2.018
							c4.993-7.807,8.636-16.656,10.686-25.929C112.535,372.428,116.964,380.087,119.726,388.681z"/>
						<path style="fill:#C14720;" d="M69.664,389.063c-6.554-0.68-13.118-1.37-19.672-2.05c2.178-8.084,6.033-15.71,11.26-22.243
							C63.078,373.045,65.478,381.202,69.664,389.063z"/>
						<g>
							<path style="fill:#C14720;" d="M133.96,391.177c-12.088,10.697-28.213,15.753-44.337,16.666
								c-24.272,1.381-32.865-4.684-44.157-17.144c1.742,12.279,10.537,23.093,21.861,28.17s24.771,4.61,36.147-0.34
								C114.851,413.568,124.134,404.38,133.96,391.177z"/>
							<g>
								<path d="M113.98,397.168c1.083,2.804,2.177,5.619,3.261,8.423c-2.772,2.146-6.012,3.686-9.433,4.493
									c-0.382-3.048-1.084-6.055-2.071-8.954C108.084,399.834,110.41,398.527,113.98,397.168z"/>
								<path d="M87.137,402.989c-0.149,3.548-0.287,7.106-0.436,10.654c-3.049-0.404-6.14-0.372-9.178,0.074
									c0.202-4.366-0.255-8.753-1.349-12.991C79.956,401.757,83.834,402.351,87.137,402.989z"/>
								<path d="M60.582,398.719c0.574,2.847,0.871,5.736,0.882,8.636c-2.284-0.085-4.546-0.457-6.735-1.094
									c-0.149-3.845-0.521-7.68-1.126-11.472C55.568,396.35,57.809,397.55,60.582,398.719z"/>
								<path d="M62.483,423.543c0-3.144-0.011-6.278-0.011-9.422c3.155-0.053,6.331,0.319,9.379,1.115
									c0.202,3.962,0.414,7.924,0.616,11.886C69.621,426.485,66.785,425.848,62.483,423.543z"/>
								<path d="M97.696,424.573c-0.956-2.932-1.901-5.853-2.857-8.785c3.112-1.2,6.32-2.146,9.581-2.826
									c0.552,3.441,1.593,6.809,3.091,9.964C104.441,423.405,101.445,424.265,97.696,424.573z"/>
							</g>
						</g>
					</g>
				</g>
				<path style="fill:#C14720;" d="M91.641,348.167c-0.733-6.352,1.785-12.98,6.628-17.675c2.103,1.923,4.206,3.845,6.299,5.768
					c-4.908,2.868-8.434,7.999-9.358,13.607C93.882,349.516,92.554,349.176,91.641,348.167z"/>
			</g>
			<g>
				<g>
					<g>
						<path style="fill:#C14720;" d="M610.86,451.48c4.03-37.33,28.48-52.32,64.83-52.32c37.5,0,61.22,17.85,64.83,54.28
							c2.89,29.14-30.46,34.72-66.81,34.72C637.36,488.16,608.29,475.38,610.86,451.48z"/>
						<path d="M614.36,458.9c4.06-38.17,28.7-53.5,65.33-53.5c37.78,0,61.69,18.25,65.33,55.5c2.91,29.79-30.69,35.5-67.33,35.5
							C641.07,496.4,611.77,483.34,614.36,458.9z"/>
					</g>
					<g>
						<path style="fill:#C14720;" d="M644.14,436.3c7.33,0.6,14.65,1.21,21.98,1.81c-4.92-6.99-8.51-14.92-10.53-23.22
							C651.22,421.74,646.85,428.6,644.14,436.3z"/>
						<path style="fill:#C14720;" d="M695.81,438.61c6.64-0.69,13.27-1.38,19.91-2.08c-2.2-8.18-6.11-15.89-11.4-22.51
							C702.48,422.41,700.04,430.66,695.81,438.61z"/>
						<g>
							<path style="fill:#C14720;" d="M632.9,436.9c12.23,10.83,28.55,15.94,44.86,16.86c24.57,1.4,33.25-4.74,44.68-17.34
								c-1.76,12.43-10.66,23.37-22.12,28.5c-11.46,5.13-25.07,4.67-36.58-0.35C652.24,459.57,642.84,450.26,632.9,436.9z"/>
							<g>
								<path d="M653.12,442.96c-1.1,2.84-2.2,5.69-3.3,8.53c2.81,2.17,6.09,3.73,9.54,4.54c0.39-3.08,1.09-6.12,2.1-9.06
									C659.09,445.66,656.73,444.35,653.12,442.96z"/>
								<path d="M680.28,448.85c0.15,3.6,0.29,7.19,0.44,10.79c3.08-0.4,6.22-0.38,9.29,0.08c-0.2-4.42,0.26-8.86,1.36-13.14
									C687.55,447.61,683.62,448.22,680.28,448.85z"/>
								<path d="M707.15,444.53c-0.58,2.88-0.88,5.81-0.9,8.74c2.31-0.09,4.6-0.46,6.82-1.11c0.15-3.89,0.53-7.77,1.14-11.61
									C712.23,442.13,709.96,443.36,707.15,444.53z"/>
								<path d="M705.23,469.66c0.01-3.18,0.01-6.35,0.02-9.53c-3.2-0.05-6.4,0.33-9.5,1.13c-0.21,4.01-0.41,8.02-0.62,12.03
									C698,472.63,700.87,471.98,705.23,469.66z"/>
								<path d="M669.6,470.7c0.96-2.96,1.93-5.93,2.89-8.89c-3.15-1.21-6.39-2.17-9.69-2.86c-0.56,3.49-1.61,6.89-3.13,10.08
									C662.77,469.51,665.81,470.38,669.6,470.7z"/>
							</g>
						</g>
					</g>
				</g>
				<path style="fill:#C14720;" d="M674.84,401.23c2.29-6.34,0.68-13.92-4-18.77c-2.69,1.63-5.39,3.26-8.08,4.89
					c4.09,3.85,6.56,9.37,6.68,14.99C671.27,401.72,673.1,401.09,674.84,401.23z"/>
			</g>
			<g>
				<g>
					<g>
						<g>
							<g>
								<path d="M660.31,216.72l-4.77-0.3l-2.28,30.76l5.59,0.6l17.62,1.89l4.75-31.64L660.31,216.72z M674.05,245.35l-7.51-0.8
									l-2.42-0.26l-5.08-0.54l-2.15-0.23l1.69-22.75l1.53,0.1l6.97,0.43l2.24,0.14l8.24,0.52l-1.78,11.89l-0.31,2.03
									L674.05,245.35z"/>
							</g>
							<g>
								<polygon points="669.46,220.32 666.44,245.35 664,245.26 667.23,220.12 								"/>
								<polygon points="676.8,234.06 658.53,230.31 658.74,232.69 676.48,236.07 								"/>
							</g>
						</g>
						<g>
							<g>
								<path d="M551.34,94.31L546.12,94l-1.96,24.97l-0.77,9.81l4.07,0.41l4.09,0.42l19.48,1.98l5.66-35.77L551.34,94.31z
									 M568.15,126.71l-8.95-0.91l-2.86-0.29l-4.82-0.49l-3.8-0.39l2.02-25.7l1.63,0.1l8.48,0.5l2.67,0.16l9.81,0.58l-2.12,13.43
									l-0.37,2.3L568.15,126.71z"/>
							</g>
							<g>
								<polygon points="562.68,98.42 559.09,126.7 556.19,126.6 560.03,98.19 								"/>
								<polygon points="571.43,113.94 549.67,109.71 549.92,112.4 571.04,116.22 								"/>
							</g>
						</g>
						<polygon points="467.65,369 458.15,193.44 661.92,182.27 653.26,367.08 						"/>
						<polygon points="690.92,293.27 656.71,293.53 463.65,294.99 431.6,295.24 428.68,295.26 459.62,264.79 461.89,262.56 
							462.47,261.99 658.02,257.07 658.4,257.48 						"/>
						<polygon points="462.49,163.24 428.68,212.98 684.97,209.13 655.29,161.78 						"/>
						<polygon points="567.87,151.19 644.67,150.71 603.52,63.81 						"/>
						<polygon points="577.74,143.88 578.11,169.72 632.96,171.07 634.8,142.8 						"/>
						<polygon points="564.21,181.1 525.97,180.48 513.08,180.27 510.87,180.23 500.25,180.06 475.23,179.65 469.09,179.55 
							467.65,179.53 471.92,163.17 471.97,163 509.84,17.93 510.61,15 510.94,16.03 511.02,16.28 523.05,53.55 544.16,118.97 
							547.46,129.19 551.63,142.11 558.21,162.52 						"/>
						<polygon points="467.65,146.05 455.82,148.54 434.69,152.99 432.43,153.46 416.58,156.8 410.31,158.12 392.92,161.78 
							416.48,63.81 417.03,64.69 						"/>
						<polygon points="476.92,257.48 461.26,250.86 439.43,241.63 428.68,237.09 412.68,168.31 410.42,158.59 410.31,158.12 
							409.37,154.06 423.09,150.61 454.18,142.8 455.82,148.54 460.76,165.79 467.42,189.08 468.5,192.87 468.58,193.13 
							470.85,201.07 472.06,212.33 473.59,226.55 473.82,228.71 474.68,236.68 474.91,238.85 						"/>
						<polygon points="516.86,53.49 553.7,53.85 565.72,87.34 551.3,88.08 551.7,153.96 						"/>
					</g>
					<g>
						<g>
							<path style="fill:#C14411;" d="M504.198,101.861c1.225-6.007,6.601-9.982,12.007-8.879c5.406,1.103,8.795,6.866,7.569,12.873
								c-1.225,6.007-6.601,9.982-12.007,8.879C506.361,113.631,502.973,107.868,504.198,101.861z"/>
							<g>
								<polygon points="513.2,80.37 512.93,121.56 514.65,122.01 515.43,80.26 								"/>
								<polygon points="534.7,102.62 493.53,104.02 493.15,105.59 534.89,104.64 								"/>
							</g>
						</g>
						<g>
							<path style="fill:#C14411;" d="M432.31,189.57l17.95-2.35l-4.71-23.12c-1.09-5.34-5.73-8.92-10.48-8.07l0,0
								c-4.87,0.87-8,6.07-6.95,11.57L432.31,189.57z"/>
							<g>
								<polygon points="433.9,148.62 442.1,193.76 440.4,194.56 431.55,148.91 								"/>
								<polygon points="450.75,163.04 422.99,170.07 422.26,168.36 450.26,160.7 								"/>
								<polygon points="453.52,178.98 425.12,182.64 424.59,180.85 453.31,176.59 								"/>
							</g>
						</g>
						<g>
							<path style="fill:#C14411;" d="M500.25,180.41l25.75,1.5l-0.69-38.84c-0.16-8.96-5.75-16.13-12.61-16.16l0,0
								c-7.05-0.03-12.76,7.47-12.69,16.68L500.25,180.41z"/>
							<g>
								<polygon points="511.18,122.88 510.85,184.61 513,185.28 514,122.72 								"/>
								<polygon points="541.9,145.93 486.46,139.9 485.64,141.99 541.76,148.75 								"/>
								<polygon points="541.67,166.65 493.32,168.93 492.91,171.11 541.95,169.45 								"/>
							</g>
						</g>
						<g>
							<path style="fill:#C14411;" d="M597.33,167.81l17.83,1.1l-0.48-18.48c-0.11-4.17-3.98-7.51-8.73-7.52l0,0
								c-4.88-0.01-8.83,3.48-8.79,7.76L597.33,167.81z"/>
							<polygon points="605.17,137.01 604.9,174.5 606.62,174.91 607.4,136.91 							"/>
							<polygon points="621.62,160.67 591.13,160.41 590.8,162.12 621.71,162.91 							"/>
							<polygon points="621.97,149.7 591.53,151.49 591.31,153.22 622.2,151.93 							"/>
						</g>
						<g>
							<polygon style="fill:#C14411;" points="629.64,246.08 631.2,213.09 612.2,210.93 614.07,246.69 							"/>
							<polygon points="634.14,221.61 603.81,218.5 603.32,220.17 634.02,223.85 							"/>
							<polygon points="636.94,236.19 606.48,237.74 606.25,239.47 637.15,238.41 							"/>
							<polygon points="624.54,252.4 620.62,205.25 618.87,204.9 622.33,252.73 							"/>
						</g>
						<g>
							<polygon style="fill:#C14411;" points="573.62,245.39 590.79,245.66 590.17,212.51 571.12,211.96 							"/>
							<g>
								<polygon points="580.9,247.64 582.73,200.36 581.03,199.79 578.66,247.69 								"/>
								<polygon points="559.1,226.31 606.36,224.04 606.78,222.31 558.85,224.09 								"/>
								<polygon points="559.01,235.21 606.18,238.85 606.81,237.18 559.04,232.97 								"/>
							</g>
						</g>
						<g>
							<polygon style="fill:#C14411;" points="501.14,249.11 497.09,216 478.84,217.49 479.71,250 							"/>
							<g>
								<polygon points="491.97,249.69 488.29,202.52 486.54,202.15 489.76,250 								"/>
								<polygon points="467.53,229.27 514.65,225.06 515,223.3 467.19,227.05 								"/>
								<polygon points="468.71,238.81 516.02,239.08 516.53,237.37 468.58,236.58 								"/>
							</g>
						</g>
						<g>
							<polygon style="fill:#C14411;" points="501.71,337.8 480.81,337.8 478.28,302.8 498.54,302.8 							"/>
							<g>
								<polygon points="471.99,329.26 506.44,332.9 506.9,331.22 472.02,327.02 								"/>
								<polygon points="472.13,314.44 506.64,312.27 506.95,310.53 471.95,312.21 								"/>
								<polygon points="485.09,297.62 488.26,344.73 489.54,345.08 486.71,297.27 								"/>
							</g>
						</g>
						<g>
							<polygon style="fill:#C14411;" points="530.62,337.96 533,302.04 513,303.83 515.09,338.55 							"/>
							<g>
								<polygon points="537.47,313.82 503.22,308.64 502.68,310.29 537.35,316.06 								"/>
								<polygon points="536.67,328.63 502.1,329.24 501.71,330.96 536.75,330.86 								"/>
								<polygon points="522.96,344.84 521.91,297.64 520.65,297.23 521.33,345.11 								"/>
							</g>
						</g>
						<g>
							<polygon style="fill:#C14411;" points="599.23,338.55 599.79,303.8 580.79,303.8 581.08,336.05 							"/>
							<g>
								<polygon points="604.93,310.27 570.29,310.4 570.01,312.11 605.15,312.49 								"/>
								<polygon points="603.72,325.13 569.63,330.94 569.51,332.7 604.13,327.33 								"/>
								<polygon points="590.4,343.96 589.35,296.76 588.08,296.36 588.77,344.24 								"/>
							</g>
						</g>
						<g>
							<polygon style="fill:#C14411;" points="614.09,336.37 612.2,303.91 634.2,303.3 634.2,337.3 							"/>
							<g>
								<polygon points="639.02,308.12 604.67,312.54 604.6,314.28 639.52,310.3 								"/>
								<polygon points="638.43,327.13 603.89,328.96 603.57,330.7 638.58,329.36 								"/>
								<polygon points="624.77,343.96 623.72,296.76 622.46,296.36 623.14,344.24 								"/>
							</g>
						</g>
					</g>
				</g>
				<g>
					<g>
						<polygon style="fill:#C14720;" points="417.15,156.5 410.31,158.12 392.92,161.78 416.48,63.81 417.03,64.69 						"/>
						<polygon style="fill:#C14720;" points="511.16,15.66 511.02,16.28 478.85,163.12 475.23,179.65 472.38,192.66 471.72,195.65 
							468.58,193.14 468.58,193.13 468.27,192.89 466.94,191.82 467.42,189.08 469.09,179.55 471.96,163.17 471.96,163.14 
							471.97,163 509.84,17.93 510.94,16.03 						"/>
						<polygon style="fill:#C14720;" points="462.49,234.47 486.55,192.67 458.04,229.14 						"/>
						<polygon style="fill:#C14720;" points="513.41,276.32 463.26,287.92 431.6,295.24 428.68,295.26 459.62,264.79 462.04,265.31 
													"/>
						<polygon style="fill:#C14720;" points="578.47,190.64 552.67,230.25 545.43,224.37 						"/>
					</g>
					<polygon style="fill:#C14720;" points="439.43,241.63 428.68,237.09 412.68,168.31 420.75,167.45 					"/>
				</g>
			</g>
		</g>
	</g>
</g>
</svg>
