<?xml version="1.0" encoding="utf-8"?>
<!-- Generator: Adobe Illustrator 27.5.0, SVG Export Plug-In . SVG Version: 6.00 Build 0)  -->
<svg version="1.1" xmlns="http://www.w3.org/2000/svg" xmlns:xlink="http://www.w3.org/1999/xlink" x="0px" y="0px"
	 viewBox="0 0 500 500" style="enable-background:new 0 0 500 500;" xml:space="preserve">
<g id="BACKGROUND">
	<rect style="fill:#0276A1;" width="500" height="500"/>
</g>
<g id="OBJECTS">
	<g id="Layer_1_1_">
		<g>
			<g>
				<defs>
					<rect id="SVGID_1_" width="500" height="500"/>
				</defs>
				<clipPath id="SVGID_00000141415587116698257890000016866300963440620688_">
					<use xlink:href="#SVGID_1_"  style="overflow:visible;"/>
				</clipPath>
			</g>
			<g>
				<defs>
					<rect id="SVGID_00000032648970237385350550000015982421045233869225_" width="500" height="500"/>
				</defs>
				<clipPath id="SVGID_00000108288507641131063040000001879382329429072276_">
					<use xlink:href="#SVGID_00000032648970237385350550000015982421045233869225_"  style="overflow:visible;"/>
				</clipPath>
				<g style="clip-path:url(#SVGID_00000108288507641131063040000001879382329429072276_);">
					<circle style="fill:#0195BD;" cx="271.55" cy="148.87" r="385"/>
					<circle style="fill:#36ABCC;" cx="271.55" cy="148.87" r="324"/>
					<circle style="fill:#60BEDA;" cx="271.55" cy="148.87" r="256"/>
					<circle style="fill:#71C9E4;" cx="271.55" cy="148.87" r="211"/>
					<g>
						<circle style="fill:#FDFEFD;" cx="271.55" cy="148.87" r="181"/>
						<g>
							<path style="fill:#E0F4F5;" d="M400.74,214.96c-19.65,8.54-32.99,26.95-44.46,45.05c-1.52,2.41-2.93,5.87-0.82,7.79
								c2.9,2.64,8.26-1.55,11.26,0.98c2.25,1.91,0.82,5.65-1.23,7.77c-6.45,6.67-17.53,8.73-21.47,17.13
								c-0.36,0.77-0.66,1.64-0.45,2.47c0.38,1.55,2.22,2.2,3.81,2.42c12.1,1.69,23.43-5.89,32.82-13.7
								c15.57-12.95,29.86-27.82,39.8-45.47c2.5-4.44,4.76-9.19,5.1-14.27s-1.61-10.6-5.94-13.28
								C412.86,207.95,405.74,212.79,400.74,214.96z"/>
							<path style="fill:#E0F4F5;" d="M304.46,292.92c-15.96-0.76-32.08,2.38-46.59,9.06c-4.86,2.24-9.77,5.08-12.5,9.69
								c-1.04,1.75-1.68,4.12-0.45,5.74c1.06,1.39,3.03,1.63,4.78,1.76c4.84,0.35,9.79,0.68,14.47-0.58c2.6-0.7,5.1-1.89,7.78-2.11
								c2.77-0.23,5.49,0.59,8.21,1.14c12.63,2.57,26.34-0.7,36.45-8.7c2.36-1.87,4.59-4.06,5.8-6.82c1.21-2.76,1.23-6.2-0.58-8.61
								c-1.81-2.41-5.09-3.35-8.09-3.11C310.73,290.62,307.91,291.85,304.46,292.92z"/>
							<path style="fill:#E0F4F5;" d="M432.34,139.67c-3.02,16.12-6.04,32.24-9.06,48.36c-0.15,0.8-0.3,1.6-0.21,2.41
								c0.34,3.24,4.51,4.92,7.59,3.85c3.08-1.07,5.17-3.91,6.81-6.73c6.74-11.55,9.44-25.41,7.52-38.65
								c-0.45-3.07-1.17-6.21-3.02-8.71c-1.84-2.5-5.03-4.22-8.06-3.52C433.1,138.54,432.3,140.4,432.34,139.67z"/>
							<path style="fill:#E0F4F5;" d="M351.79,202.15c-10.61,15.78-25.4,28.73-42.45,37.15c-10.79,5.33-22.91,9.21-30.76,18.33
								c-3.08,3.58-5.22,9.31-1.99,12.75c1.1,1.17,2.65,1.83,4.19,2.31c8.81,2.8,18.56,1.13,26.99-2.68
								c8.43-3.81,15.76-9.63,22.95-15.44c14.29-11.56,29.12-24.48,34.02-42.19c0.8-2.88,1.25-6.18-0.39-8.68
								C361.59,199.48,355.24,200.36,351.79,202.15z"/>
							<path style="fill:#E0F4F5;" d="M179.17,105.09c-13.98,9.59-24.22,24.49-28.16,40.97c-1.78,7.43-1.85,16.4,3.92,21.42
								c3.55,3.09,8.9,4.25,11.18,8.38c2.81,5.09-0.69,11.15-2.85,16.54c-5.51,13.8,0.46,32.49,14.66,36.87
								c11.88,3.66,24.49-3.29,33.51-11.85c27.18-25.83,35.41-69.54,19.5-103.49c-2.61-5.57-6.14-11.19-11.76-13.67
								c-2.94-1.3-6.2-1.62-9.41-1.84C200.39,97.79,190.54,97.29,179.17,105.09z"/>
							<path style="fill:#E0F4F5;" d="M302.62-14.77c-16.22-3.32-32.94-6.64-49.19-3.52c-7.99,1.53-15.97,4.83-21.24,11.02
								c-3.78,4.44-5.38,12.21-0.51,15.41c2.2,1.44,5.02,1.43,7.64,1.28c13.87-0.75,27.8-3.51,41.55-1.54
								c13.8,1.98,27.13,8.68,40.99,7.14c1.72-0.19,3.49-0.54,4.86-1.58c2.83-2.14,2.99-6.36,2.12-9.8
								C326.29-6.4,316.37-11.96,302.62-14.77z"/>
							<path style="fill:#E0F4F5;" d="M354.33-2.33c-4.44,1.41-8.91,2.83-12.97,5.11c-0.72,0.4-1.47,0.89-1.79,1.65
								c-0.97,2.37,2.56,3.76,5.02,4.45c3.65,1.02,6.72,3.43,9.85,5.57s6.63,4.12,10.42,4.07c3.79-0.05,7.77-2.9,7.77-6.69
								C372.62,5.63,363.33,3.24,354.33-2.33z"/>
							<path style="fill:#E0F4F5;" d="M193.16,1.12c-13.55,4.11-25.87,12.2-35.03,23c-5.29,6.24-9.67,13.78-9.88,21.96
								c-0.03,1.17,0.05,2.41,0.68,3.4c1.05,1.62,3.23,2.02,5.15,2c10.86-0.14,21.12-9.04,31.56-6.04c0.13,2.85,0.26,5.69,0.4,8.54
								c18.78-2.41,36.89-9.81,51.99-21.23c2.57-1.94,5.32-5.16,3.77-7.98c-1-1.81-3.3-2.36-5.34-2.73
								c-5.99-1.08-11.99-2.17-17.98-3.25c-2.99-0.54-6.49-1.49-7.51-4.36c-1.06-2.99,1.28-5.99,3.21-8.51
								c1.93-2.52,3.54-6.3,1.37-8.61c-1.51-1.61-4.04-1.53-6.23-1.23C201.91-2.92,194.66-0.66,193.16,1.12z"/>
							<path style="fill:#E0F4F5;" d="M129.49,67.07c-7.97,7.26-13.92,16.72-17.01,27.05c-0.84,2.82-1.48,5.83-0.81,8.69
								c0.67,2.87,2.99,5.53,5.92,5.74c3.3,0.24,6-2.49,8.02-5.11c5.7-7.41,10.05-15.87,12.77-24.82c1.2-3.97,2-8.57-0.31-12.01
								C136.09,67.42,134.11,68.22,129.49,67.07z"/>
							<path style="fill:#E0F4F5;" d="M108.46,172.33c-0.19,7.94-0.38,15.97,1.27,23.74c1.64,7.77,5.31,15.38,11.57,20.28
								c3.88,3.04,10.63,4.31,12.94-0.05c1.82-3.43-0.66-7.44-2.48-10.87c-3.14-5.96-4.4-12.89-3.55-19.57
								c0.74-5.8,2.99-11.83,0.89-17.29c-2.08-5.41-8.68-8.6-14.21-6.88C109.36,163.42,105.75,169.8,108.46,172.33z"/>
						</g>
					</g>
				</g>
			</g>
		</g>
		<g>
			<g>
				<defs>
					<rect id="SVGID_00000095337539167979595480000016548767348006816673_" width="500" height="500"/>
				</defs>
				<clipPath id="SVGID_00000019646466885337606200000017088859571675160716_">
					<use xlink:href="#SVGID_00000095337539167979595480000016548767348006816673_"  style="overflow:visible;"/>
				</clipPath>
				<g style="clip-path:url(#SVGID_00000019646466885337606200000017088859571675160716_);">
					<g>
						<g>
							<g>
								<path style="fill:#031F34;" d="M538.21,78.23c-5.21,14.62-10.41,29.24-15.55,43.18c-2.5,6.78-4.99,13.4-7.45,19.77
									c-26.19-41.4-55.91-80.57-87.57-118.66c-7.25-21.22-16.7-41.68-28.76-61.19c1.52-0.24,3.05-0.49,4.57-0.72
									c9.93-1.55,19.79-2.77,29.09-1.5c12.26,19.36,24.52,38.72,38.67,59.76C495.98,35.59,518.59,55.49,538.21,78.23z"/>
								<path style="fill:#2D698C;" d="M522.66,121.41c-2.5,6.78-4.99,13.4-7.45,19.77c-26.19-41.4-55.91-80.57-87.57-118.66
									c-7.25-21.22-16.7-41.68-28.76-61.19c1.52-0.24,3.05-0.49,4.57-0.72c9.49,13.38,17.12,28.07,22.61,43.53
									c-2.12-11.26-4.24-22.53-6.36-33.79c8.39,39.56,31.59,72.86,58.28,104.33c-6.8-8.59-12.03-18.42-15.36-28.86
									c14.29,23.77,31.44,45.82,50.97,65.51C516.75,114.52,520.06,117.77,522.66,121.41z"/>
							</g>
							<g>
								<path style="fill:#031F34;" d="M393.27,26.98c-3.79-0.5-7.58-1.01-11.37-1.52c-1.06-1.09-2.11-2.19-3.17-3.3
									C366.54,9.39,354.4-4.46,342.28-18.4c-1.27-1.46-2.54-2.92-3.81-4.38C360.62-9.39,378.61,7.53,393.27,26.98z"/>
								<path style="fill:#2D698C;" d="M381.78,21.07c-0.93,0.59-1.97,0.95-3.05,1.09C366.54,9.39,354.4-4.46,342.28-18.4
									C356.55-6.41,369.77,6.81,381.78,21.07z"/>
							</g>
							<g>
								<path style="fill:#031F34;" d="M457.02,48.15c-0.09,0.56-0.19,1.14-0.31,1.73c-34.7-6.92-67.02-16.87-102.12-16.68
									C306.13,11.45,254.57-3.39,201.97-10.73c0.84,0.02,1.68,0.03,2.53,0.06C254.11-9.34,306.15,4.08,355.57,24
									c32.43-3.36,58.34-8.71,89.12-2.48C444.74,25.33,460.72,25.37,457.02,48.15z"/>
								<path style="fill:#2D698C;" d="M457.02,48.15c-0.09,0.56-0.19,1.14-0.31,1.73c-34.7-6.92-67.02-16.87-102.12-16.68
									C306.13,11.45,254.57-3.39,201.97-10.73c0.84,0.02,1.68,0.03,2.53,0.06c52.09,4.37,103.39,18.3,151.16,40.81
									c30.42,0.74,60.77,4.66,90.39,11.66c3.23,0.76,6.6,1.63,9.08,3.85C455.9,46.34,456.55,47.2,457.02,48.15z"/>
							</g>
							<g>
								<g>
									<path style="fill:#031F34;" d="M329.77,18.81c-21.21,4.41-41.75,12.06-60.69,22.58c-6.44-1.56-12.93-2.95-19.46-4.15
										c-14.61,9.33-29.23,18.65-43.84,27.97c-1.49,0.94-2.96,1.9-4.45,2.84c13.04-10.17,26.09-20.36,39.13-30.53l0.01-0.01
										c0.65-0.51,1.29-1,1.94-1.51c-11.85-1.93-23.82-3.24-35.81-3.86c-0.02-0.01-0.03-0.01-0.05,0
										c-4.8-0.26-9.62-0.4-14.43-0.44c24.21-1.82,49.47-0.21,73.98,4.96c18.03-9.83,35.69-17.59,53.35-25.36
										c2.5,2.13,4.94,3.9,7.37,5.54C327.8,17.51,328.79,18.16,329.77,18.81z"/>
								</g>
								<path style="fill:#2D698C;" d="M329.77,18.81c-21.21,4.41-41.75,12.06-60.69,22.58c-6.44-1.56-12.93-2.95-19.46-4.15
									c-14.61,9.33-29.23,18.65-43.84,27.97c13.96-10.4,28.24-20.42,43.13-29.89c6.74,1.32,13.47,2.62,20.11,3.91
									c12.91-5.95,25.82-11.89,38.73-17.84c4.62-2.12,9.37-4.29,14.45-4.72c1.52-0.13,3.09-0.08,4.61,0.18
									C327.8,17.51,328.79,18.16,329.77,18.81z"/>
								<path style="fill:#2D698C;" d="M244.28,34.46c-1.08,1.24-2.38,2.25-3.81,3.05c0.65-0.51,1.29-1,1.94-1.51
									c-11.85-1.93-23.82-3.24-35.81-3.86C219.19,32.16,231.78,32.95,244.28,34.46z"/>
							</g>
						</g>
						<g>
							<g>
								<g>
									<path style="fill:#031F34;" d="M199.81,473.67c-0.5,0.12-0.96,0.23-1.4,0.34c-0.02,0.01-0.05,0.01-0.08,0.02
										c-4.34,1.06-5.95,1.43-7.57,1.8c-4.06-8.69-7.69-17.58-10.88-26.62c-10.78-3.4-21.07-8.24-30.14-14.78
										c1.09,0.33,2.18,0.66,3.25,0.99c10.93,3.29,21.02,6.31,31.17,9.08c3.3,10.42,8.65,19.94,15.19,28.56
										C199.5,473.27,199.66,473.47,199.81,473.67z"/>
									<path style="fill:#2D698C;" d="M199.35,473.06c-0.31,0.32-0.62,0.63-0.94,0.95l-0.05,0.05c-0.01-0.01-0.02-0.02-0.03-0.03
										c-6.26-7.9-11.17-16.89-14.42-26.45c-11.17-2.43-21.52-6.54-30.92-12.16c10.93,3.29,21.02,6.31,31.17,9.08
										C187.46,454.92,192.81,464.44,199.35,473.06z"/>
								</g>
								<g>
									<g>
										<path style="fill:#031F34;" d="M361.43,500.5c-0.55-0.04-1.14-0.06-1.78-0.07h-0.07c-3.43-0.06-8.02,0.2-12.58,0.69
											c-8.87-15.15-20.07-28.94-33.08-40.74c-17.72-6.65-33-16.7-44-30.28c0.44,0.31,0.88,0.61,1.32,0.91
											c15.46,10.69,31.53,19.21,48.41,25.55c15.54,12.59,28.5,27.11,40.53,42.35C360.6,499.44,361.01,499.97,361.43,500.5z"/>
										<path style="fill:#2D698C;" d="M360.18,498.91c-0.18,0.51-0.35,1.01-0.53,1.52c0,0.02-0.01,0.05-0.02,0.07
											c-0.02-0.02-0.03-0.05-0.05-0.07c-10.94-15.01-23.69-28.71-37.89-40.69c-18.37-6.75-36.26-16.76-50.45-28.73
											c15.46,10.69,31.53,19.21,48.41,25.55C335.19,469.15,348.15,483.67,360.18,498.91z"/>
									</g>
									<g>
										<path style="fill:#031F34;" d="M335.89,475.08c-1.76-1.69-3.52-3.38-6.46-4.47c-1-6.64-2.01-13.28-3.43-20.79
											c-0.16-0.87-0.33-1.75-0.51-2.65c3.19-8.31,6.37-16.62,10.23-25.85c-0.48,2.13-0.97,4.25-1.44,6.39
											c0,0.01-0.01,0.02-0.01,0.03c-1.45,6.45-2.88,13.03-4.23,20.14C331.32,457.07,333.28,466.17,335.89,475.08z"/>
										<path style="fill:#2D698C;" d="M335.72,421.32c-0.48,2.13-0.97,4.25-1.44,6.39c0,0.01-0.01,0.02-0.01,0.03
											c-2.27,7.53-5.04,14.91-8.27,22.08c-0.16-0.87-0.33-1.75-0.51-2.65C328.68,438.86,331.86,430.55,335.72,421.32z"/>
									</g>
									<g>
										<path style="fill:#031F34;" d="M302.38,454.74c-8.07,1.73-16.14,3.47-25.42,6.16c-6.41-2.62-13.26-4.18-19.92-4.72h-0.05
											c-1.27-0.11-2.53-0.18-3.78-0.21c7.79-0.95,15.79-0.25,23.81,2c6.44-2.4,13.09-4.21,19.86-5.42
											c0.96-0.18,1.93-0.34,2.9-0.49C300.38,453.28,301.28,454.35,302.38,454.74z"/>
										<path style="fill:#2D698C;" d="M298.71,453.42c-7.3,1.37-14.46,3.44-21.36,6.19c-6.53-2.25-13.43-3.42-20.31-3.43h-0.05
											c-1.27-0.11-2.53-0.18-3.78-0.21c7.79-0.95,15.79-0.25,23.81,2c6.44-2.4,13.09-4.21,19.86-5.42
											C297.49,452.82,298.11,453.11,298.71,453.42z"/>
									</g>
								</g>
								<g>
									<path style="fill:#031F34;" d="M481.21,486.03c-24.84,6.63-48.56,17.38-69.92,31.68c-38.9-4.11-76.34-5.39-113.77-6.68
										c-29.01-9.51-55.49-20.02-81.08-32.35c-27.76-1.01-55.86-0.2-83.97,0.62c4.25-0.79,8.47-1.52,12.68-2.18
										c24.89-3.95,49.21-5.76,73.51-5.56c17.36,9.83,37.26,17.34,57.82,21.85c28.78,2.17,59.16,3.08,89.51,2.3
										c22.86-10.46,44.59-23.08,64.8-37.76c3.39-2.45,6.74-4.97,10.04-7.55c12.99,0.35,22.35,4.07,29.13,10.56
										C476.75,467.46,480.87,476.65,481.21,486.03z"/>
									<path style="fill:#2D698C;" d="M440.21,463.46c-23.78,12.39-47.56,24.77-71.34,37.16c-51.53,7.61-105.17-1.05-150.62-25.36
										c-24.32-1.89-48.87-1.25-73.1,1.86c24.89-3.95,49.21-5.76,73.51-5.56c17.36,9.83,37.26,17.34,57.82,21.85
										c28.78,2.17,59.16,3.08,89.51,2.3c22.86-10.46,44.59-23.08,64.8-37.76C433.75,460.07,436.91,461.92,440.21,463.46z"/>
									<path style="fill:#2D698C;" d="M370.94,505.3c21.84-14.62,43.69-29.24,65.62-44.29c4.41,1.2,8.81,2.39,13.22,3.59
										C424.72,479.99,398.74,493.9,370.94,505.3z"/>
								</g>
								<g>
									<path style="fill:#031F34;" d="M245.96,490.62c-15.99,4.68-31.11,12.34-44.34,22.47c-14.65-2.72-29.72-4.03-44.78-3.89
										c9.1-1.62,18.07-2.07,26.89-1.56c5.44,0.3,10.82,0.97,16.15,1.95c10.26-9.63,21.6-17.91,33.93-24.21
										c0.93-0.47,1.87-0.94,2.81-1.39C241.06,487.02,243.51,488.82,245.96,490.62z"/>
									<path style="fill:#2D698C;" d="M236.5,486.08c-13.49,6.85-26.08,15.44-37.37,25.51c-4.86-1.91-10.05-3.23-15.4-3.95
										c5.44,0.3,10.82,0.97,16.15,1.95c10.26-9.63,21.6-17.91,33.93-24.21C234.7,485.66,235.6,485.89,236.5,486.08z"/>
								</g>
							</g>
							<g>
								<g>
									<path style="fill:#031F34;" d="M172.77,385.95c-3.74,3.15-7.48,6.3-14.13,9.81c-15.93-3.8-31.85-7.6-46.6-12.44
										c-4.9-11.76-12.18-22.43-21.15-31.4c-11.14,1.64-22.44,5.65-36.09,8c-6.78-3.39-13.7-5.77-20.71-7.25
										c-0.02-0.01-0.04-0.01-0.07-0.01c-1.71-0.35-3.42-0.66-5.14-0.91c9.17-0.65,18.12,0.62,26.51,3.52
										c12.38-3.23,21.74-5.97,30.32-7.77c0.13-0.03,0.25-0.05,0.38-0.08C71.92,335,54.3,326.55,35.46,324.11
										c0.6-0.02,1.2-0.03,1.8-0.04c0.01-0.01,0.01-0.01,0.02,0c24.46-0.28,48.67,10.27,66.19,27.79
										c-0.03-0.42-0.07-0.84-0.1-1.26c0-0.01,0-0.01,0-0.01c-0.75-9.14-1.57-18.32-2.75-27.67c-3.93-11.68-9.19-22.9-15.08-33.66
										c-0.02-0.03-0.04-0.05-0.05-0.08c-0.1-0.19-0.21-0.38-0.31-0.57c7.43,11.34,14.87,22.68,21.56,34.67
										c1.74,12.77,3.47,25.53,5.21,38.3c2.87,3.79,5.46,7.8,7.71,12.02c13.64,4.08,27.48,7.49,41.45,10.23
										C164.99,384.59,168.88,385.3,172.77,385.95z"/>
								</g>
								<path style="fill:#2D698C;" d="M161.11,383.83c-2.69,0.95-5.23,2.34-7.48,4.09c-11.69-4.93-23.85-8.77-36.25-11.44
									c-2.54-5.99-5.59-11.08-9.37-15.55c-0.6-12.07-1.65-24.4-2.71-36.74c-6.3-11.85-12.76-23.56-19.76-34.93
									c-0.02-0.03-0.04-0.05-0.05-0.08c-0.1-0.19-0.21-0.38-0.31-0.57c7.43,11.34,14.87,22.68,21.56,34.67
									c1.74,12.77,3.47,25.53,5.21,38.3c2.87,3.79,5.46,7.8,7.71,12.02C133.3,377.68,147.14,381.09,161.11,383.83z"/>
								<path style="fill:#2D698C;" d="M103.82,355.75c-17.94-17.42-41.72-28.7-66.54-31.68c24.46-0.28,48.67,10.27,66.19,27.79
									c-0.03-0.42-0.07-0.84-0.1-1.26C103.81,352.28,103.98,354.01,103.82,355.75z"/>
								<path style="fill:#2D698C;" d="M88.02,348.76c-10.87,2-21.54,5.13-31.78,9.32c-7.33-2.66-14.71-4.43-22.15-5.41
									c-0.02-0.01-0.04-0.01-0.07-0.01c-1.71-0.35-3.42-0.66-5.14-0.91c9.17-0.65,18.12,0.62,26.51,3.52
									c12.38-3.23,21.74-5.97,30.32-7.77C86.49,347.91,87.26,348.33,88.02,348.76z"/>
							</g>
							<g>
								<g>
									<g>
										<path style="fill:#031F34;" d="M93.08,427.91c-24.29,12.22-46.24,29.07-64.33,49.36c-19.99,7.19-38.58,15.72-56.28,25.81
											c5.6-3.35,11.18-6.69,16.78-10.03c0,0,0.01,0,0.01-0.01c11.42-6.83,22.85-13.66,34.27-20.49
											c0.61-0.72,1.23-1.42,1.84-2.13c-0.05-0.01-0.11-0.01-0.16-0.02H25.2c-14.93-2.03-29.75-4.32-43.54-9.42
											c1.6,0.09,3.21,0.19,4.82,0.28c14.55,0.83,29.25,1.62,45.51,1.94c9.04-9.32,18.97-17.61,29.61-24.79
											c4.65-3.16,9.44-6.09,14.34-8.82C81.31,426.61,87.52,428.15,93.08,427.91z"/>
									</g>
									<path style="fill:#2D698C;" d="M61.6,438.41c-1.21,1.54,3.82-0.62,3.82-0.62s-15.75,9.18-34.39,27.81
										c-15.06,0.47-30.05-0.98-44.55-4.34c14.55,0.83,29.25,1.62,45.51,1.94C41.03,453.88,50.96,445.59,61.6,438.41z"/>
									<path style="fill:#2D698C;" d="M27.01,470.17c-1,1.33-1.99,2.66-2.99,3.99c-11.43,6.47-23.07,12.71-34.76,18.88
										c11.42-6.83,22.85-13.66,34.27-20.49c0.61-0.72,1.23-1.42,1.84-2.13c-0.05-0.01-0.11-0.01-0.16-0.02
										C25.81,470.32,26.41,470.24,27.01,470.17z"/>
								</g>
								<g>
									<path style="fill:#031F34;" d="M518.31,506.67c-55.64-19.38-107.42-49.78-151.45-88.93
										c-63.95-10.13-127.32-13.41-190.63-12.49c-35.5,9.86-73.08,21.79-110.66,33.72c-32.51,0.26-62.42-3.41-91.49-10.53
										c3.08-2.56,5.23-4.42,7.01-6c1.17-1.05,2.17-1.97,3.18-2.89c22.51,7.22,46.54,9.42,70.02,6.75
										c38.67-12.63,76.74-29.04,113.22-48.44c71.16-5.39,138.59-8.22,210.42-2.04c37.09,34.78,93.7,58.8,145.52,63.45
										c1.02,6.99,1.71,14.04,1.93,21.02C525.93,476.57,524.03,492.51,518.31,506.67z"/>
									<path style="fill:#2D698C;" d="M525.38,460.29c-56.07-12.52-108.9-39.3-152.1-77.17c-68.19-4.57-136.9-3.55-205.2,2.27
										c-37.05,16.14-73.7,30.56-110.35,44.98c-25.74,4.14-52.43,1.33-76.64-7.93c1.17-1.05,2.17-1.97,3.18-2.89
										c22.51,7.22,46.54,9.42,70.02,6.75c38.67-12.63,76.74-29.04,113.22-48.44c71.16-5.39,138.59-8.22,210.42-2.04
										c37.09,34.78,93.7,58.8,145.52,63.45C524.47,446.26,525.16,453.31,525.38,460.29z"/>
									<path style="fill:#2D698C;" d="M518.09,453.74c-49.31-9.86-96.59-29.72-138.14-58.03c39.02,36.45,89.81,60.1,142.82,66.5
										C521.83,459.05,521.55,454.43,518.09,453.74z"/>
									<path style="fill:#2D698C;" d="M82.66,425.11c24.72-16.7,53.4-27.52,82.99-31.32C136.88,402.99,108.59,413.66,82.66,425.11
										z"/>
								</g>
							</g>
						</g>
						<g>
							<path style="fill:#031F34;" d="M332.08,369.96c14.36,2.12,27.01,13.15,30.4,24.91c-42.26-4.89-84.94-4.6-127.48-4.29
								c-10.07,0.07-20.67,0.28-29.35,5.37c5.98-14.87,25.17-25.55,41.19-26.15"/>
							<g>
								<g>
									<g>
										<path style="fill:#031F34;" d="M254.62,376.86c-5.6,3.81-12.13,5.98-18.83,6.85c-2,0.26-4.16,0.37-5.89-0.66
											c-0.85-0.51-1.48-1.25-1.92-2.11c-0.86-1.7-0.94-3.89-0.33-5.75c0.91-2.8,3.01-5.02,5.05-7.14
											c-10.89-38.29-16.48-78.15-16.51-118.01l3.5,4.42l19.52,24.65C252.67,309.63,258.04,343.68,254.62,376.86z"/>
										<path style="fill:#2D698C;" d="M234.94,367.51c-1.06,3.32-3.46,6.01-5.21,9.02c-0.79,1.35-1.44,2.87-1.75,4.41
											c-0.86-1.7-0.94-3.89-0.33-5.75c0.91-2.8,3.01-5.02,5.05-7.14c-10.89-38.29-16.48-78.15-16.51-118.01l3.5,4.42
											c-0.08,33.21,4.6,66.44,13.87,98.33C234.96,357.6,236.46,362.74,234.94,367.51z"/>
									</g>
									<g>
										<path style="fill:#031F34;" d="M387.54,215.43c-5.61,2.95-12.26,3.13-18.18,5.39c-2.48,0.95-4.78,2.3-6.83,3.96
											c-0.01,0,0,0.01,0,0.01c-7.71,6.21-12.03,16.73-10.14,26.53c2.54,13.2,14.13,22.43,21.34,33.76
											c11.15,16.66,10.77,37.75,2.22,54.66c-6.81,13.49-18.83,24.32-34.36,28.13c-2.44-15.64-2.44-15.74-2.44-15.84
											c8.85-2.28,16.18-7.93,21.11-15.2c0,0,0.01,0,0.01-0.01c2.55-3.76,4.45-7.96,5.58-12.35c1.96-7.51,1.68-15.59-1.45-23.05
											c-4.45-11.23-13.94-19.64-20.26-29.94c-21.43-30.89,1.04-80.56,40.69-75.51C397.14,196.44,397.65,210.13,387.54,215.43z"
											/>
										<path style="fill:#2D698C;" d="M387.54,215.43c-5.61,2.95-12.26,3.13-18.18,5.39c-2.48,0.95-4.78,2.3-6.83,3.96
											c3.02-4.12,7.27-7.33,12.19-8.75c3.23-0.94,6.66-1.18,9.79-2.41c3.13-1.23,6.07-3.84,6.28-7.19
											c0.21-3.3-2.38-6.29-5.47-7.47c-3.09-1.17-6.54-0.86-9.78-0.19c-13.57,2.8-25.67,12.01-31.98,24.34
											c-6.32,12.34-6.72,27.54-1.06,40.19c3.57,7.97,9.28,14.75,14.48,21.77c5.19,7.03,10.04,14.68,11.41,23.31
											c0.86,5.42,0.04,11.32-2.54,16.09c1.96-7.51,1.68-15.59-1.45-23.05c-4.45-11.23-13.94-19.64-20.26-29.94
											c-21.43-30.89,1.04-80.56,40.69-75.51C397.14,196.44,397.65,210.13,387.54,215.43z"/>
									</g>
									<g>
										<path style="fill:#031F34;" d="M342.59,372.2c-0.63,0.42-1.32,0.76-2.05,1.03c-19.03,6.92-53.88,7.86-71.27,0
											c-12.68-5.72-17.76-31.92-22.1-49.23c-1.63-6.46-3.14-11.67-4.92-14.14c-6.52-9.08-26.9-30.25-26.9-70.54l7.06,0.07
											l36.87,0.38l8.13,0.08c0,0,60.8,28.91,69.55,48.11C345.37,306.41,358.5,361.81,342.59,372.2z"/>
										<path style="fill:#2D698C;" d="M342.59,372.2c2.7-5.76,4.1-12.21,4.38-18.58c0.49-10.99-2.03-21.88-4.92-32.49
											c-3.15-11.53-6.9-23.2-14.22-32.64c-7.06-9.09-16.93-15.5-26.61-21.73c-13.98-9-27.96-17.99-41.94-26.99l8.13,0.08
											c0,0,60.8,28.91,69.55,48.11C345.37,306.41,358.5,361.81,342.59,372.2z"/>
										<path style="fill:#2D698C;" d="M247.17,324c-1.63-6.46-3.14-11.67-4.92-14.14c-6.52-9.08-26.9-30.25-26.9-70.54l7.06,0.07
											c0.31,17.71,3.05,35.62,11.06,51.36c3.45,6.79,7.85,13.11,10.77,20.15C245.95,315.04,247.1,319.55,247.17,324z"/>
									</g>
									<g>
										<path style="fill:#031F34;" d="M274.96,385.62c-1.64,0.93-3.68,0.66-5.52,0.23c-3.75-0.87-7.38-2.28-10.73-4.18
											c-1.61-0.9-3.16-1.93-4.64-3.05c-5.59-25.67-7.31-51.45-5.62-76.95c0.21-3.15,0.47-6.3,0.78-9.45l27.9,21.49
											c-3.02,19.7-4,39.71-2.92,59.61c0.49,1.56,2.18,3.46,2.86,5.82C277.74,381.49,277.09,384.4,274.96,385.62z"/>
										<path style="fill:#2D698C;" d="M258.71,381.67c-1.61-0.9-3.16-1.93-4.64-3.05c-5.59-25.67-7.31-51.45-5.62-76.95
											c0.98,20.54,2.82,41.04,5.09,61.48c0.49,4.43,1.01,8.91,2.5,13.12C256.71,378.16,257.59,380,258.71,381.67z"/>
									</g>
								</g>
								<g>
									<polygon style="fill:#0C2F45;" points="152.36,157.32 124.81,164.79 344.98,205.92 277.95,160.1 									"/>
									<g>
										<path style="fill:#031F34;" d="M298.23,227.12c-5.81,9.71-23.13,16.82-43.7,19.28c-1.4,0.17-2.8,0.31-4.2,0.43
											c-18.01,1.55-38-0.43-54.75-7.25c-0.01-0.01-0.02-0.01-0.02-0.01c-0.5-0.2-0.99-0.41-1.49-0.63
											c-10.7-4.61-19.97-11.26-26.4-20.32c-0.02-0.02-0.04-0.04-0.05-0.07c-2.7-3.81-4.9-8.04-6.49-12.73
											c-1.09-3.19,2.5-13.91,10.05-25.74c1.41-2.2,2.96-4.46,4.64-6.7c0.01-0.01,0.01-0.01,0.02-0.02
											c14.54-19.4,39.1-38.59,70.74-30.63c25.28,6.35,40.74,28.2,48.16,48.36c1.26,3.39,2.28,6.74,3.08,9.95
											C300.77,212.84,300.77,222.89,298.23,227.12z"/>
										<path style="fill:#2D698C;" d="M298.23,227.12c-5.81,9.71-23.13,16.82-43.7,19.28c-1.4,0.17-2.8,0.31-4.2,0.43
											c7.53-1.82,16.57-3.96,23.57-7.26c7.3-3.44,14.53-6.82,18.51-13.83c3.03-5.34,2.37-24.28,2.33-34.65
											c1.26,3.39,2.28,6.74,3.08,9.95C300.77,212.84,300.77,222.89,298.23,227.12z"/>
										<path style="fill:#2D698C;" d="M195.56,239.57c-0.5-0.2-0.99-0.41-1.49-0.63c-9.9-4.35-19.44-11.52-26.4-20.32
											c-0.02-0.02-0.04-0.04-0.05-0.07c-2.7-3.81-4.9-8.04-6.49-12.73c-1.09-3.19,2.5-13.91,10.05-25.74
											c1.41-2.2,2.96-4.46,4.64-6.7c-4.05,8.92-10.52,22.68-9.66,34.05c0.43,5.67,5.5,11.4,9.37,15.55
											C181.36,229.24,188.74,234.4,195.56,239.57z"/>
										<g>
											<g>
												<path style="fill:#F0A435;" d="M229.79,212.43c0,0,11.86-24.5,26.5-24.5c14.64,0,28.55,14.5,28.55,14.5
													s-13.92,24.5-28.55,24.5S229.79,212.43,229.79,212.43z"/>
												<path style="fill:#031F34;" d="M260.97,220.19c-1.33-5.36-1.85-10.77-1.59-16.08c0.72-0.17,1.44-0.36,2.17-0.56
													c-0.7-0.18-1.41-0.35-2.12-0.5c0.24-3.54,0.82-7.04,1.74-10.45C263.78,202.34,263.41,211.55,260.97,220.19z"/>
											</g>
											<g>
												<path style="fill:#F0A435;" d="M212.29,212.43c0,0-9.16-24.5-20.46-24.5s-22.04,14.5-22.04,14.5s10.74,24.5,22.04,24.5
													S212.29,212.43,212.29,212.43z"/>
												<path style="fill:#031F34;" d="M196.83,221.22c-1.33-5.36-1.85-10.77-1.59-16.08c0.72-0.17,1.44-0.36,2.17-0.56
													c-0.7-0.18-1.41-0.35-2.12-0.5c0.24-3.54,0.82-7.04,1.74-10.45C199.64,203.37,199.27,212.58,196.83,221.22z"/>
											</g>
											<g>
												<path style="fill:#5D798C;" d="M202.37,232.96c0.85-8.48,7.28-18.25,17.5-18.25s20.94,8.66,22,18.75
													c0.85,8.1-9.78,12.25-20,12.25S201.55,241.07,202.37,232.96z"/>
												<path style="fill:#031F34;" d="M214.6,225.62c-0.89-0.64-1.82-1.32-2.36-2.48c-0.54-1.16-0.55-2.94,0.26-3.94
													c0.54-0.67,1.29-0.84,1.99-0.95c2.63-0.43,5.26-0.49,7.85-0.2c1.32,0.15,2.91,0.73,3.08,2.53
													c0.14,1.39-0.69,2.72-1.55,3.62C221.26,226.96,217.76,227.89,214.6,225.62z"/>
											</g>
										</g>
									</g>
									<g>
										<g>
											<path style="fill:#0F445E;" d="M398.59,67.59c-9.8-6.54-23.63-6.32-33.22,0.52c-13.32,9.51-17.71,29.28-32.7,35.85
												c-5.52,2.42-11.82,2.65-17.32,5.12c-8.95,4-15.69,16.31-16.35,23.09c-0.72,7.24-0.21,11.56,1.08,21.91
												c14.77,12.89,30.19,30.45,41.6,46.84c1.16,1.68,2.29,3.35,3.37,5c-69.9-26.95-145.86-41.68-220.05-41.21
												c0.24-0.11,0.47-0.22,0.71-0.33c24.15-11.28,48.01-19.33,74.61-24.96c0.08-0.02,0.15-0.03,0.23-0.05
												c0.36-0.77,0.73-1.54,1.11-2.31c0.01-0.02,0.02-0.04,0.03-0.06c11.96-24.38,30.66-46.79,50.94-64.74
												c5.95-5.26,12.3-10.32,19.75-13.05c7.46-2.72,16.27-2.8,22.91,1.55c5.66,3.7,9.49,10.31,15.97,12.24
												c8.06,2.39,15.96-3.46,22.94-8.15c10.02-6.73,21.54-11.78,33.6-12.14C379.87,52.35,392.49,57.28,398.59,67.59z"/>
											<path style="fill:#2D698C;" d="M125.71,164.38c24.15-11.28,48.01-19.33,74.61-24.96c-0.87,1.52-1.71,3.06-2.54,4.61
												C173.46,148.63,149.54,155.3,125.71,164.38z"/>
											<path style="fill:#2D698C;" d="M398.59,67.59c-9.8-6.54-23.63-6.32-33.22,0.52c-13.32,9.51-17.71,29.28-32.7,35.85
												c-5.52,2.42-11.82,2.65-17.32,5.12c-8.95,4-15.69,16.31-16.35,23.09c-0.72,7.24-0.21,11.56,1.08,21.91
												c14.77,12.89,30.19,30.45,41.6,46.84c-13.3-13.44-26.61-26.89-39.91-40.33c-3.64-3.68-7.39-7.54-8.99-12.46
												c-1.96-6.03-0.35-12.61,1.67-18.62c2.7-8.04,6.54-16.33,13.75-20.8c6.07-3.75,13.6-4.21,20.15-7.03
												c8.46-3.64,14.72-10.94,20.44-18.16c5.71-7.23,11.78-14.26,19.37-19.47c9.21-6.32,25.84-0.24,25.82-0.33
												c-8.99-13.1-33.83-10.9-49.16-2.26c-5.52,3.1-10.38,7.26-15.87,10.4c-5.5,3.14-12.01,5.24-18.15,3.69
												c-6.68-1.7-11.51-7.28-16.93-11.54c-5.43-4.25-15.81-4.78-20.85-1.66C242.87,82,219.41,106.36,201.69,137
												c11.96-24.38,30.66-46.79,50.94-64.74c5.95-5.26,12.3-10.32,19.75-13.05c7.46-2.72,16.27-2.8,22.91,1.55
												c5.66,3.7,9.49,10.31,15.97,12.24c8.06,2.39,15.96-3.46,22.94-8.15c10.02-6.73,21.54-11.78,33.6-12.14
												C379.87,52.35,392.49,57.28,398.59,67.59z"/>
										</g>
										<g>
											<path style="fill:#152B42;" d="M200.29,139.17c33.46-0.22,67.95,4.93,99.95,14.78c0.52-5.66,0.34-11.39-0.6-16.68
												c-28.86-13.6-59.71-18.82-90.92-14.79C204.87,126.81,199.93,138.26,200.29,139.17z"/>
											<g>
												<path style="fill:#F0A435;" d="M244.32,145.17c0.17-8.56,2-17.09,6.23-25.36c9.34,0.48,18.56,3.16,26.77,7.97
													c-1.16,7.42-3.07,14.71-5.7,22.03C262.78,148.48,253.93,147.15,244.32,145.17z"/>
												<path style="fill:#152B42;" d="M248.95,141.2c0.12-5.4,1.39-10.78,4.34-16c6.51,0.3,12.94,2,18.66,5.03
													c-0.81,4.68-2.14,9.28-3.97,13.9C261.81,143.28,255.64,142.45,248.95,141.2z"/>
											</g>
										</g>
										<g>
											<path style="fill:#031F34;" d="M305.81,131.17c0,18.71-4.22,34.48-8.02,43.5c-0.29-0.22-0.59-0.45-0.88-0.67
												c-7.79-5.92-16.07-11.49-24.01-16.47c-4.89-3.06-9.65-5.9-14.09-8.46C277.1,137.3,284.72,133.73,305.81,131.17z"/>
											<path style="fill:#5D798C;" d="M302.81,136.88c0,15.8-3.05,29.18-5.9,37.12c-7.79-5.92-16.07-11.49-24.01-16.47
												C283.05,148.77,293.47,140.99,302.81,136.88z"/>
										</g>
										<g>
											<path style="fill:#031F34;" d="M196.33,111.4c-8.3,16.77-11.51,32.77-12.11,42.54c0.36-0.07,0.73-0.14,1.09-0.21
												c9.61-1.85,19.5-3.17,28.82-4.11c5.74-0.57,11.27-1.01,16.38-1.33C219.34,129.63,214.09,123.05,196.33,111.4z"/>
											<path style="fill:#5D798C;" d="M196.48,117.85c-7.01,14.16-10.21,27.51-11.18,35.89c9.61-1.85,19.5-3.17,28.82-4.11
												C208.92,137.27,203.03,125.68,196.48,117.85z"/>
										</g>
									</g>
								</g>
							</g>
						</g>
					</g>
					<g>
						<g>
							<path style="fill:#0276A1;" d="M-32.41,247.04c30.96,0.2,61.92,0.39,93.4,0.18c-1.55-3.92-1.28-8.95-4.65-11.76
								c-3.62-3.01-9.79-0.89-14.73-0.22c-0.63-6.41-5.79-12.28-12.48-14.22s-14.52,0.18-18.93,5.12
								c-4.09-5.11-11.96-7.37-18.42-5.28s-10.97,8.36-10.56,14.66c-3.54-3.57-10.16-4.06-14.19-1.05
								C-37.01,237.49-37.83,243.52-32.41,247.04z"/>
							<path style="fill:#0995B7;" d="M370.71,142.97c43.05,2.49,86.26,2.37,129.29-0.36c-1.68-10.82-15.62-17.61-25.18-12.25
								c-3.4-8.46-12.48-14.28-21.59-13.85c-9.11,0.43-17.6,7.08-20.19,15.82c-4.32-4.76-13.1-4.16-16.73,1.15
								c-3.86-6.79-11.98-10.89-19.73-9.96s-14.68,6.82-16.84,14.33C375.64,135,368.95,138.65,370.71,142.97z"/>
							<path style="fill:#0995B7;" d="M-8.71,65.71c55.33-1.5,110.67-2.99,166-4.49c-5.71-7.13-17.87-10.89-28.52-8.83
								c1.87-7.47-4.28-15.63-13.72-18.2s-21.03,0.77-25.85,7.44c-6.59-10.24-23.3-16.06-37.84-13.18S26.02,42.63,26.92,54
								C13.94,47.4-6.72,53.72-8.71,65.71z"/>
							<path style="fill:#0276A1;" d="M418.95,379.16c43.72,2.32,87.59,1.86,131.26-1.38c-0.17-6.31-4.06-12.39-9.72-15.19
								c-5.66-2.81-12.84-2.23-17.98,1.45c-2.74-12.55-13.86-22.82-26.58-24.56c-12.73-1.75-26.2,5.15-32.22,16.5
								c-3.74-7.25-13.23-10.92-20.87-8.06c-7.64,2.86-12.4,11.85-10.47,19.77C425.74,366.31,418.47,371.34,418.95,379.16z"/>
						</g>
						<g>
							<g>
								<path style="fill:#031F34;" d="M435.57,271.99c-2-2.11-2.74-5.13-1.9-7.72c0.85-2.6,3.25-4.68,6.15-5.35
									c-0.27,1.93-0.54,3.86-0.81,5.78c2.05-1.68,4.75-2.7,7.55-2.87C446.43,266.88,441.81,271.37,435.57,271.99z"/>
								<path style="fill:#031F34;" d="M436.93,269.66c6.54,2.2,14.02,1.69,19.37-1.01c6.46,3.28,11.54,8.82,13.37,15.22
									c-3.27-3.84-9.82-5-15.93-1.97c-3.23-2.49-8.53-2.24-11.25,0.53c-4.07-2.38-9.79-1.98-13.19,0.93
									c0.96-3.66-2.7-7.83-6.9-7.85c0.72-3.51-3.21-7.26-7.13-6.8c0.96-5.06-8.83-10-14.51-9.56c6.69-6.2,17.07-6.56,23.28-2.76
									C425.26,262.46,430.38,267.46,436.93,269.66z"/>
							</g>
							<g>
								<path style="fill:#031F34;" d="M70.8,116.33c2.08-2.21,2.93-5.53,2.18-8.48c-0.75-2.95-3.08-5.45-5.96-6.4
									c0.2,2.17,0.4,4.34,0.6,6.51c-1.99-2.01-4.66-3.34-7.45-3.73C60.12,109.86,64.58,115.19,70.8,116.33z"/>
								<path style="fill:#031F34;" d="M69.52,113.63c-6.62,1.99-14.09,0.91-19.34-2.49c-6.58,3.2-11.86,9.03-13.92,16.04
									c3.41-4.06,10-4.89,16.01-1.08c3.32-2.55,8.62-1.9,11.24,1.38c4.15-2.37,9.87-1.52,13.17,1.96
									c-0.83-4.15,2.99-8.54,7.18-8.27c-0.6-3.97,3.47-7.87,7.38-7.08c-0.78-5.71,9.2-10.53,14.86-9.65
									c-6.47-7.38-16.85-8.51-23.19-4.71C81.46,106.42,76.16,111.63,69.52,113.63z"/>
							</g>
							<g>
								<path style="fill:#031F34;" d="M150.14,340.83c0.92-1.14,1.2-2.76,0.73-4.14s-1.69-2.49-3.11-2.83
									c0.18,1.03,0.36,2.06,0.53,3.09c-1.04-0.89-2.37-1.42-3.73-1.49C144.76,338.15,147.1,340.53,150.14,340.83z"/>
								<path style="fill:#031F34;" d="M149.42,339.59c-3.11,1.21-6.75,0.98-9.4-0.44c-3.05,1.79-5.37,4.78-6.1,8.21
									c1.49-2.07,4.63-2.73,7.67-1.14c1.5-1.35,4.08-1.24,5.46,0.22c1.91-1.29,4.69-1.11,6.41,0.43c-0.56-1.95,1.12-4.2,3.15-4.23
									c-0.44-1.87,1.37-3.9,3.29-3.67c-0.59-2.7,4.03-5.39,6.79-5.19c-3.39-3.28-8.43-3.42-11.34-1.36
									C154.9,335.68,152.54,338.38,149.42,339.59z"/>
							</g>
						</g>
					</g>
				</g>
			</g>
		</g>
	</g>
</g>
</svg>
