<?xml version="1.0" encoding="utf-8"?>
<!-- Generator: Adobe Illustrator 27.5.0, SVG Export Plug-In . SVG Version: 6.00 Build 0)  -->
<svg version="1.1" xmlns="http://www.w3.org/2000/svg" xmlns:xlink="http://www.w3.org/1999/xlink" x="0px" y="0px"
	 viewBox="0 0 500 500" style="enable-background:new 0 0 500 500;" xml:space="preserve">
<g id="BACKGROUND">
	<rect style="fill:#634C72;" width="500" height="500"/>
</g>
<g id="OBJECTS">
	<g>
		<g>
			<defs>
				<rect id="SVGID_1_" width="500" height="500"/>
			</defs>
			<clipPath id="SVGID_00000163789769438526973380000000812994501868022706_">
				<use xlink:href="#SVGID_1_"  style="overflow:visible;"/>
			</clipPath>
			<g style="clip-path:url(#SVGID_00000163789769438526973380000000812994501868022706_);">
				<g>
					<circle style="opacity:0.08;fill:#DFCBEF;" cx="250" cy="-12.55" r="385.723"/>
					<circle style="opacity:0.08;fill:#DFCBEF;" cx="250" cy="-12.55" r="296.324"/>
					<circle style="opacity:0.1;fill:#DFCBEF;" cx="250" cy="-12.55" r="186.9"/>
					<circle style="opacity:0.1;fill:#DFCBEF;" cx="250" cy="-12.55" r="135.688"/>
					<g>
						<circle style="fill:#FDFEFD;" cx="250" cy="-12.55" r="105.772"/>
						<g style="opacity:0.52;">
							<path style="fill:#DFCBEF;" d="M325.495,26.072c-11.483,4.99-19.279,15.749-25.981,26.326
								c-0.888,1.408-1.712,3.43-0.479,4.552c1.695,1.543,4.827-0.906,6.58,0.573c1.315,1.116,0.479,3.302-0.719,4.541
								c-3.769,3.898-10.244,5.102-12.546,10.01c-0.21,0.45-0.386,0.958-0.263,1.443c0.222,0.906,1.297,1.286,2.227,1.414
								c7.071,0.988,13.692-3.442,19.179-8.006c9.099-7.568,17.45-16.257,23.258-26.571c1.461-2.595,2.782-5.37,2.98-8.339
								c0.199-2.969-0.941-6.194-3.471-7.761C332.578,21.975,328.417,24.804,325.495,26.072z"/>
							<path style="fill:#DFCBEF;" d="M269.232,71.629c-9.327-0.444-18.747,1.391-27.226,5.295c-2.84,1.309-5.709,2.969-7.305,5.663
								c-0.608,1.023-0.982,2.408-0.263,3.354c0.619,0.812,1.771,0.952,2.793,1.028c2.828,0.205,5.721,0.397,8.456-0.339
								c1.519-0.409,2.98-1.104,4.546-1.233c1.619-0.134,3.208,0.345,4.798,0.666c7.381,1.502,15.392-0.409,21.3-5.084
								c1.379-1.093,2.682-2.372,3.389-3.985c0.707-1.613,0.719-3.623-0.339-5.031c-1.058-1.408-2.974-1.958-4.728-1.817
								C272.896,70.285,271.248,71.004,269.232,71.629z"/>
							<path style="fill:#DFCBEF;" d="M343.962-17.926c-1.765,9.42-3.53,18.84-5.294,28.26c-0.088,0.467-0.175,0.935-0.123,1.408
								c0.199,1.893,2.635,2.875,4.435,2.25c1.8-0.625,3.021-2.285,3.98-3.933c3.939-6.749,5.517-14.849,4.395-22.586
								c-0.263-1.794-0.684-3.629-1.765-5.09c-1.075-1.461-2.939-2.466-4.71-2.057C344.406-18.586,343.938-17.499,343.962-17.926z"
								/>
							<path style="fill:#DFCBEF;" d="M296.89,18.586c-6.2,9.222-14.843,16.789-24.807,21.71
								c-6.305,3.115-13.388,5.382-17.975,10.712c-1.8,2.092-3.051,5.441-1.163,7.451c0.643,0.684,1.549,1.069,2.449,1.35
								c5.148,1.636,10.846,0.66,15.772-1.566c4.926-2.226,9.21-5.627,13.411-9.023c8.351-6.755,17.017-14.306,19.88-24.655
								c0.467-1.683,0.73-3.611-0.228-5.072C302.617,17.025,298.906,17.54,296.89,18.586z"/>
							<path style="fill:#DFCBEF;" d="M196.015-38.134c-8.169,5.604-14.154,14.311-16.456,23.942
								c-1.04,4.342-1.081,9.584,2.291,12.517c2.075,1.806,5.201,2.484,6.533,4.897c1.642,2.974-0.403,6.516-1.665,9.666
								c-3.22,8.064,0.269,18.986,8.567,21.546c6.942,2.139,14.311-1.923,19.582-6.925c15.883-15.094,20.693-40.637,11.395-60.477
								c-1.525-3.255-3.588-6.539-6.872-7.988c-1.718-0.76-3.623-0.947-5.499-1.075C208.416-42.4,202.66-42.692,196.015-38.134z"/>
							<path style="fill:#DFCBEF;" d="M268.156-108.177c-9.478-1.94-19.249-3.88-28.745-2.057c-4.669,0.894-9.332,2.823-12.412,6.44
								c-2.209,2.595-3.144,7.135-0.298,9.005c1.286,0.841,2.933,0.836,4.465,0.748c8.105-0.438,16.246-2.051,24.281-0.9
								c8.064,1.157,15.854,5.072,23.954,4.172c1.005-0.111,2.039-0.315,2.84-0.923c1.654-1.25,1.747-3.717,1.239-5.727
								C281.989-103.286,276.192-106.535,268.156-108.177z"/>
							<path style="fill:#DFCBEF;" d="M298.375-100.907c-2.595,0.824-5.207,1.654-7.579,2.986c-0.421,0.234-0.859,0.52-1.046,0.964
								c-0.567,1.385,1.496,2.197,2.933,2.601c2.133,0.596,3.927,2.004,5.756,3.255c1.829,1.251,3.874,2.408,6.089,2.378
								c2.215-0.029,4.541-1.695,4.541-3.909C309.063-96.256,303.634-97.652,298.375-100.907z"/>
							<path style="fill:#DFCBEF;" d="M204.191-98.891c-7.918,2.402-15.118,7.129-20.471,13.441
								c-3.091,3.646-5.651,8.053-5.774,12.833c-0.018,0.684,0.029,1.408,0.397,1.987c0.614,0.947,1.888,1.18,3.01,1.169
								c6.346-0.082,12.342-5.283,18.443-3.53c0.076,1.665,0.152,3.325,0.234,4.991c10.975-1.408,21.558-5.733,30.382-12.406
								c1.502-1.134,3.109-3.015,2.203-4.663c-0.584-1.058-1.928-1.379-3.12-1.595c-3.5-0.631-7.007-1.268-10.507-1.899
								c-1.747-0.315-3.793-0.871-4.389-2.548c-0.619-1.747,0.748-3.5,1.876-4.973c1.128-1.473,2.069-3.682,0.801-5.032
								c-0.882-0.941-2.361-0.894-3.641-0.719C209.304-101.252,205.067-99.931,204.191-98.891z"/>
							<path style="fill:#DFCBEF;" d="M166.984-60.352c-4.657,4.243-8.134,9.771-9.94,15.807c-0.491,1.648-0.865,3.407-0.473,5.078
								c0.392,1.677,1.747,3.232,3.46,3.354c1.928,0.14,3.506-1.455,4.687-2.986c3.331-4.33,5.873-9.274,7.463-14.504
								c0.701-2.32,1.169-5.008-0.181-7.018C170.841-60.147,169.684-59.68,166.984-60.352z"/>
							<path style="fill:#DFCBEF;" d="M154.694,1.16c-0.111,4.64-0.222,9.332,0.742,13.873c0.958,4.541,3.103,8.988,6.761,11.851
								c2.267,1.777,6.212,2.519,7.562-0.029c1.064-2.004-0.386-4.348-1.449-6.352c-1.835-3.483-2.571-7.533-2.074-11.436
								c0.432-3.389,1.747-6.913,0.52-10.104c-1.215-3.161-5.072-5.026-8.304-4.021C155.22-4.047,153.111-0.319,154.694,1.16z"/>
						</g>
					</g>
				</g>
				<g>
					<path style="fill:#221B35;" d="M124.179,396.926c-3.586-15.654-7.64-32.214-18.278-43.234
						c-3.576-3.704-8.106-6.736-12.996-6.645c-4.89,0.091-9.902,4.259-9.994,9.687c-2.087-4.22-7.661-6.17-11.993-6.398
						c-4.332-0.228-8.702,2.195-11.14,6.177c-3.41-8.663-12.508-14.252-20.71-11.706c-8.201,2.546-14.014,12.346-12.881,21.716
						c-2.269-3.204-6.948-5.505-10.58-4.91c-3.632,0.596-6.889,3.473-8.227,7.268c-6.213-2.873-13.101-3.555-17.751,1.846
						c-4.65,5.401-7.442,18.791-4.576,25.551c42.259,0.372,84.893-10.75,127.152-10.378"/>
					<path style="fill:#221B35;" d="M382.987,379.579c2.556-12.308,10.501-23.397,21.334-29.776
						c3.941-2.32,8.659-4.067,13.038-2.747c4.379,1.32,7.533,6.896,4.989,10.696c5.591-4.189,15.62-3.988,19.441,1.861
						c2.496-8.159,9.069-14.974,17.283-17.281c5.361-1.506,11.536-1.078,15.926,2.348c4.39,3.426,6.217,10.245,3.09,14.853
						c3.07-2.672,8.195-1.878,11.169,0.9c2.974,2.778,3.41,7.858,0.953,11.102c6.472-2.115,14.121,0.192,18.119,5.703
						c3.998,5.512,3.982,13.608-0.038,19.104c-37.58-4.275-74.659-8.051-112.239-12.325"/>
					<path style="fill:#352947;" d="M500,500H0V393.307c170.827-21.932,337.581-22.392,500,0V500z"/>
				</g>
				<g>
					<g>
						<path style="fill:none;stroke:#F6F8F2;stroke-miterlimit:10;" d="M503.294,505.419c-18.714-25.232-37.428-50.457-56.143-75.69
							"/>
						<path style="fill:none;stroke:#F6F8F2;stroke-miterlimit:10;" d="M494.75,509.643c-29.572-18.388-59.134-36.776-88.705-55.165
							"/>
						<path style="fill:none;stroke:#F6F8F2;stroke-miterlimit:10;" d="M504.937,479.465c-6.177-18.12-12.345-36.233-18.523-54.353"
							/>
						<path style="fill:none;stroke:#F6F8F2;stroke-miterlimit:10;" d="M468.696,511.593c-23.922-6.523-47.341-14.284-70.056-23.224
							"/>
						<path style="fill:none;stroke:#F6F8F2;stroke-miterlimit:10;" d="M396.884,508.386c6.924-4.194,9.89-12.186,6.595-19.565
							c6.521-1.243,12.22-4.981,15.066-9.883c2.847-4.903,2.773-10.862-1.158-16.092c8.647-0.201,17.15-2.799,23.763-7.263
							c6.613-4.464,11.299-10.756,12.827-18.272c7.426,2.448,15.6,3.361,23.548,2.65c4.972-0.452,10.366-1.833,12.484-5.735
							c4.381,4.255,13.008,5.076,18.421,1.75"/>
						<path style="fill:none;stroke:#F6F8F2;stroke-miterlimit:10;" d="M512.467,458.152c-2.075,1.733-5.093,2.697-8.081,2.583
							c-2.987-0.113-5.906-1.31-7.53-4.449c-5.09,6.888-16.444,10.244-25.829,6.572c-2.945,8.922-12.583,16.123-23.728,17.143
							c1.585,4.184,1.071,8.846-1.41,12.71c-2.481,3.864-6.891,6.876-12.015,8.2c2.341,3.75,1.025,8.737-3.003,11.346"/>
						<path style="fill:none;stroke:#F6F8F2;stroke-miterlimit:10;" d="M450.399,520.073c5.252-2.476,7.335-8.51,3.658-12.975
							c7.078-2.262,11.876-8.459,10.771-15.578c8.134-0.405,15.408-5.817,16.68-14.927c7.834,1.65,16.743-1.111,21.143-6.556
							c3.512,2.68,9.388,3.021,13.294,0.766"/>
						<path style="fill:none;stroke:#F6F8F2;stroke-miterlimit:10;" d="M508.452,490.242c-5.913,1.983-12.977,1.603-18.56-1.009
							c-1.088,5.115-6.757,9.327-13.157,9.774c2.835,3.481,2.083,8.548-1.671,11.349"/>
					</g>
					<g>
						<path style="fill:none;stroke:#F6F8F2;stroke-miterlimit:10;" d="M-3.503,503.111c16.82-24.542,33.641-49.077,50.462-73.618"
							/>
						<path style="fill:none;stroke:#F6F8F2;stroke-miterlimit:10;" d="M4.199,507.237c26.61-17.862,53.212-35.724,79.822-53.586"/>
						<path style="fill:none;stroke:#F6F8F2;stroke-miterlimit:10;" d="M-5.02,477.837c5.538-17.635,11.068-35.262,16.606-52.897"/>
						<path style="fill:none;stroke:#F6F8F2;stroke-miterlimit:10;" d="M27.67,509.173c21.539-6.317,42.622-13.84,63.07-22.512"/>
						<path style="fill:none;stroke:#F6F8F2;stroke-miterlimit:10;" d="M92.351,506.154c-6.243-4.094-8.926-11.88-5.969-19.06
							c-5.876-1.219-11.014-4.868-13.585-9.645c-2.571-4.778-2.513-10.58,1.02-15.667c-7.789-0.209-15.452-2.751-21.415-7.107
							s-10.193-10.489-11.58-17.81c-6.685,2.373-14.047,3.25-21.208,2.546c-4.48-0.447-9.339-1.8-11.253-5.602
							c-3.94,4.137-11.71,4.924-16.59,1.678"/>
						<path style="fill:none;stroke:#F6F8F2;stroke-miterlimit:10;" d="M-11.834,457.073c1.872,1.691,4.592,2.633,7.283,2.527
							s5.317-1.267,6.776-4.321c4.595,6.714,14.827,9.998,23.275,6.436c2.666,8.691,11.358,15.717,21.398,16.726
							c-1.421,4.072-0.952,8.612,1.289,12.378c2.241,3.766,6.217,6.705,10.834,8.002c-2.103,3.648-0.911,8.505,2.721,11.052"/>
						<path style="fill:none;stroke:#F6F8F2;stroke-miterlimit:10;" d="M44.163,517.456c-4.734-2.419-6.62-8.297-3.313-12.639
							c-6.379-2.213-10.71-8.254-9.724-15.184c-7.327-0.406-13.887-5.686-15.046-14.558c-7.054,1.595-15.083-1.106-19.054-6.414
							c-3.159,2.605-8.452,2.928-11.974,0.727"/>
						<path style="fill:none;stroke:#F6F8F2;stroke-miterlimit:10;" d="M-8.171,488.326c5.329,1.939,11.691,1.58,16.716-0.956
							c0.987,4.982,6.1,9.091,11.866,9.536c-2.548,3.385-1.864,8.321,1.521,11.053"/>
					</g>
				</g>
				<g>
					<g>
						<path style="fill:#352947;" d="M426.919,40.536c-43.075,0.38-86.149,0.759-129.224,1.138
							c1.431-5.182,5.353-9.417,10.473-11.057c5.12-1.64,11.034-0.529,15.209,2.858c2.782-9.439,10.303-18.129,20.092-19.131
							c9.789-1.001,19.932,4.398,24.568,13.078c1.45-2.941,4.525-5.014,7.796-5.255c3.271-0.24,6.616,1.36,8.48,4.058
							c2.143-6.189,6.218-12.082,12.456-14.079c6.238-1.997,13.389-0.888,18.728,2.905
							C422.129,19.763,425.639,32.503,426.919,40.536z"/>
						<path style="fill:#352947;" d="M63.242,17.408c42.498,0.083,84.997,0.167,127.495,0.25c-2.509-4.057-6.454-8.085-11.083-9.236
							c-4.629-1.151-9.697-0.421-13.814,1.989c1.146-6.978-2.402-16.009-7.063-21.327c-4.661-5.318-11.763-8.404-18.831-8.183
							c-6.978,0.218-13.992,3.856-17.357,9.973c-5.797-4.264-13.271-4.504-19.877-1.651C96.106-7.924,91.229-1.405,90.358,5.738
							c-4.862-2.7-11.049-3.331-16.209-1.253C68.991,6.563,64.876,12.091,63.242,17.408z"/>
						<path style="fill:#352947;" d="M418.459,231.089c35.711-0.266,71.423-0.532,107.134-0.798
							c-1.857-5.567-6.158-11.321-11.566-13.6c-5.407-2.279-11.792-2.113-17.074,0.444c0.609-11.341-8.14-21.989-19.435-23.173
							c-11.296-1.185-22.728,7.606-24.484,18.827c-2.377-4.264-6.717-4.892-11.266-3.122c-4.549,1.771-7.364,7.139-6.233,11.887
							c-2.717-3.616-6.165-6.474-10.3-4.64C421.1,218.748,417.603,226.648,418.459,231.089z"/>
						<path style="fill:#352947;" d="M-23.249,222.327c30.175-1.395,60.349-2.79,90.524-4.185
							c0.031-7.237-5.496-15.026-12.202-17.747c-6.706-2.721-14.986-0.963-20.007,4.249c-5.561-10.803-15.55-19.382-27.594-20.975
							c-6.339-0.838-13.396,0.208-17.861,4.786c-5.448,5.586-5.394,14.361-4.992,22.154c-3.27-0.862-6.178-2.14-8.602,0.218
							C-26.407,213.185-24.021,219.035-23.249,222.327z"/>
					</g>
					<g>
						<g>
							<path style="fill:#1F1D28;" d="M412.708,113.744c-1.459-2.077-1.714-4.78-0.659-6.911c1.065-2.138,3.403-3.629,5.993-3.839
								c-0.479,1.633-0.958,3.266-1.435,4.89c1.985-1.19,4.447-1.728,6.887-1.519C422.739,110.712,418.177,114.003,412.708,113.744z
								"/>
							<path style="fill:#1F1D28;" d="M414.179,111.904c5.37,2.732,11.896,3.244,16.861,1.592c5.163,3.655,8.847,9.088,9.613,14.849
								c-2.336-3.733-7.847-5.569-13.511-3.729c-2.473-2.562-7.084-3.02-9.786-0.973c-3.213-2.574-8.205-2.956-11.513-0.875
								c1.295-3.039-1.336-7.107-4.962-7.659c1.068-2.94-1.849-6.68-5.294-6.781c1.473-4.249-6.356-9.762-11.318-10.104
								c6.568-4.505,15.581-3.495,20.462,0.578C405.014,104.2,408.801,109.171,414.179,111.904z"/>
						</g>
						<g>
							<path style="fill:#1F1D28;" d="M90.36,82.396c2.207-3.2,2.643-7.567,1.124-11.158c-1.519-3.59-4.951-6.306-8.781-6.954
								c0.672,2.709,1.344,5.418,2.016,8.127c-2.908-2.161-6.545-3.33-10.153-3.286C75.589,76.264,82.264,82.152,90.36,82.396z"/>
							<path style="fill:#1F1D28;" d="M88.218,79.224c-7.998,3.797-17.665,3.87-24.968,0.578
								c-7.714,5.321-13.275,13.721-14.531,22.995c3.534-5.799,11.718-8.121,20.063-4.456c3.712-3.869,10.548-4.069,14.498-0.421
								c4.797-3.802,12.204-3.829,17.054-0.059c-1.852-5.094,2.138-11.39,7.496-11.856c-1.526-4.911,2.875-10.634,7.979-10.388
								c-2.089-7.079,9.617-15.108,16.954-15.085c-9.616-8.096-22.977-7.525-30.271-1.49C101.945,67.792,96.24,75.411,88.218,79.224
								z"/>
						</g>
						<g>
							<path style="fill:#1F1D28;" d="M72.392,264.741c0.92-1.14,1.2-2.76,0.73-4.14c-0.47-1.38-1.69-2.49-3.11-2.83
								c0.18,1.03,0.36,2.06,0.53,3.09c-1.04-0.89-2.37-1.42-3.73-1.49C67.011,262.061,69.352,264.441,72.392,264.741z"/>
							<path style="fill:#1F1D28;" d="M71.672,263.501c-3.11,1.21-6.75,0.98-9.4-0.44c-3.05,1.79-5.37,4.78-6.1,8.21
								c1.49-2.07,4.63-2.73,7.67-1.14c1.5-1.35,4.08-1.24,5.46,0.22c1.91-1.29,4.69-1.11,6.41,0.43c-0.56-1.95,1.12-4.2,3.15-4.23
								c-0.44-1.87,1.37-3.9,3.29-3.67c-0.59-2.7,4.03-5.39,6.79-5.19c-3.39-3.28-8.43-3.42-11.34-1.36
								C77.151,259.591,74.791,262.291,71.672,263.501z"/>
						</g>
						<g>
							<path style="fill:#1F1D28;" d="M433.374,303.531c1.439-0.274,2.7-1.328,3.235-2.685c0.534-1.356,0.322-2.992-0.541-4.17
								c-0.529,0.902-1.058,1.804-1.595,2.699c-0.217-1.351-0.889-2.616-1.881-3.549
								C431.004,298.008,431.249,301.336,433.374,303.531z"/>
							<path style="fill:#1F1D28;" d="M433.627,302.12c-3.154-1.089-5.782-3.619-6.884-6.416c-3.484-0.608-7.187,0.172-9.963,2.315
								c2.475-0.615,5.297,0.913,6.587,4.092c2.017-0.059,3.914,1.694,4.022,3.7c2.291,0.252,4.295,2.187,4.61,4.474
								c0.834-1.849,3.571-2.478,5.138-1.188c0.874-1.711,3.568-2.088,4.883-0.671c1.297-2.441,6.56-1.504,8.535,0.434
								c-0.464-4.694-4.216-8.061-7.768-8.372C440.335,302.683,436.789,303.216,433.627,302.12z"/>
						</g>
					</g>
				</g>
			</g>
		</g>
		<g>
			<ellipse style="opacity:0.52;fill:#473859;" cx="250" cy="431.47" rx="171.436" ry="22.792"/>
			<g>
				<g>
					<g>
						<g>
							<path style="fill:#FFFAEF;" d="M410.8,349.89c-0.65,12.56-3.77,23.63-8.95,33.33c-12.58,23.62-37.31,39.15-68.18,48.31
								c-24.93,7.41-53.87,10.66-83.67,10.66c-29.94,0-58.86-3.26-83.73-10.72c-43.07-12.91-73.99-38.42-76.96-81.36v-0.01
								c-0.39-5.59-0.3-11.48,0.29-17.67c0.72-7.52,1.94-15.35,3.63-23.35c5.73-27.13,16.94-56.17,32.73-81.51
								c0.7-1.12,1.65-0.97,2.38-2.08c11.29-5.97,61.47-10.46,121.66-10.46c61.17,0,112,4.64,122.18,10.75
								c0.6,0.93,1.29,0.85,1.86,1.79c19.61,32.02,32.16,70.3,36.15,104.86C410.89,338.54,411.09,344.36,410.8,349.89z"/>
							<g style="opacity:0.44;">
								<path style="fill:#E8E4D6;" d="M410.745,349.89c-2.24,43.11-33.57,68.72-77.13,81.64c1.21-1.36,2.33-2.78,3.38-4.21
									c7-9.6,12.08-20.75,20.73-28.89c7.72-7.26,17.7-11.55,26.44-17.54C395.535,373.11,404.685,362.25,410.745,349.89z"/>
								<path style="fill:#E8E4D6;" d="M166.215,431.47c-43.07-12.91-73.99-38.42-76.96-81.36c6.06,12.27,15.17,23.04,26.47,30.78
									c8.74,5.99,18.72,10.28,26.44,17.54c8.65,8.14,13.73,19.29,20.73,28.89C163.925,428.73,165.035,430.13,166.215,431.47z"/>
							</g>
						</g>
						<path style="fill:#E8E4D6;" d="M374.04,227.575c0,0.201-0.04,0.414-0.11,0.615c-2.76,7.753-57.19,13.929-123.93,13.929
							c-65.89,0-119.79-6.03-123.8-13.638c-0.16-0.302-0.24-0.604-0.24-0.906c0-0.973,0.82-1.924,2.38-2.842
							c11.29-6.679,61.47-11.703,121.66-11.703c61.17,0,112,5.191,122.18,12.027C373.4,225.874,374.04,226.713,374.04,227.575z"/>
						<path style="fill:#8C806F;" d="M357.256,226.03c0,0.129-0.035,0.265-0.095,0.394c-2.387,4.959-48.091,8.909-105.8,8.909
							c-56.975,0-104.943-3.857-108.41-8.723c-0.138-0.193-0.208-0.386-0.208-0.58c0-0.622,0.709-1.231,2.058-1.817
							c9.762-4.272,54.514-7.485,106.56-7.485c52.893,0,95.484,3.32,104.287,7.692C356.703,224.942,357.256,225.479,357.256,226.03z
							"/>
						<g>
							<g>
								<g>
									<path style="fill:#1F1D28;" d="M226.628,336.945c5.377,34.416-20.063,50.05-47.003,50.05
										c-26.941,0-53.556-13.635-53.556-38.757s26.615-52.219,53.556-52.219C206.565,296.019,222.19,308.541,226.628,336.945z"/>
									<path style="fill:#1F1D28;" d="M273.372,336.945c-5.378,34.416,20.063,50.05,47.003,50.05
										c26.941,0,53.556-13.635,53.556-38.757s-26.615-52.219-53.556-52.219C293.435,296.019,277.81,308.541,273.372,336.945z"/>
								</g>
								<path style="fill:#1F1D28;" d="M265.65,389.78c0,10.282-15.69-4.966-15.69-4.966s-15.609,15.248-15.609,4.966
									c0-10.282,7.007-28.957,15.65-28.957S265.65,379.498,265.65,389.78z"/>
							</g>
							<g>
								<path style="fill:none;stroke:#1F1D28;stroke-width:5;stroke-linecap:round;stroke-miterlimit:10;" d="M251.153,441.494
									c0-10.625-0.001-21.25-0.001-31.875"/>
								<path style="fill:none;stroke:#1F1D28;stroke-width:5;stroke-linecap:round;stroke-miterlimit:10;" d="M289.562,439.816
									c9.394-7.363,14.766-19.57,13.851-31.47"/>
								<path style="fill:none;stroke:#1F1D28;stroke-width:5;stroke-linecap:round;stroke-miterlimit:10;" d="M209.673,439.816
									c-6.961-8.663-11.564-19.203-13.187-30.197"/>
							</g>
						</g>
					</g>
					<g>
						<g>
							<path style="fill:#1F1D28;" d="M127.288,240.376c-1.403,3.271-3.811,5.378-5.378,4.705c-1.567-0.672-1.7-3.869-0.297-7.14
								c1.403-3.271,3.811-5.378,5.378-4.705C128.558,233.908,128.691,237.105,127.288,240.376z"/>
							<path style="fill:#1F1D28;" d="M372.712,240.376c1.403,3.271,3.811,5.378,5.378,4.705c1.567-0.672,1.7-3.869,0.297-7.14
								c-1.403-3.271-3.811-5.378-5.378-4.705C371.442,233.908,371.309,237.105,372.712,240.376z"/>
						</g>
						<path style="fill:none;stroke:#1F1D28;stroke-width:5;stroke-miterlimit:10;" d="M124.45,239.159h-12.552
							c-25.808-238.157,304-231.888,275.948,0h-11.403"/>
					</g>
					<g>
						<defs>
							<path id="SVGID_00000003797040875453195240000003707029934770742442_" d="M405.808,124.636
								c-6.706-0.095-13.413-0.161-20.12-0.182c-52.433-0.166-106.115-17.208-158.335-12.651
								c-26.519,2.314-51.532,24.819-77.882,28.628c-12.794,1.85-25.531,3.981-38.212,6.489c-6.882,1.361-13.78,2.643-20.724,3.472
								c-25.707,34.969-36.838,70.178-21.457,88.766c0.938,1.133,73.667-13.751,73.667-13.129c0,0.193,0.069,0.386,0.208,0.58
								c3.467,4.866,51.435,8.723,108.41,8.723c57.71,0,103.414-3.95,105.8-8.909c0.061-0.129,0.095-0.265,0.095-0.394
								c0-0.551,26.452-3.504,25.397-4.026C375.104,218.254,553.701,228.5,405.808,124.636z"/>
						</defs>
						<clipPath id="SVGID_00000039831411936085393360000007941707367548795818_">
							<use xlink:href="#SVGID_00000003797040875453195240000003707029934770742442_"  style="overflow:visible;"/>
						</clipPath>
						<g style="clip-path:url(#SVGID_00000039831411936085393360000007941707367548795818_);">
							<g>
								<g>
									<g>
										<path style="fill:#FFFAEF;" d="M331.244,261.083L331.244,261.083c4.032,0.383,7.631-2.779,8.038-7.062l8.438-88.828
											c0.967-10.182,8.914-18.451,18.548-18.467c10.986-0.019,19.298,9.97,18.22,21.319l-1.432,15.077
											c-0.407,4.283,2.532,8.066,6.565,8.449l0,0c4.032,0.383,7.631-2.779,8.038-7.062l1.344-14.151
											c1.804-18.994-10.53-36.545-28.336-38.925c-18.653-2.493-35.615,12.01-37.489,31.738l-8.498,89.463
											C324.272,256.917,327.212,260.7,331.244,261.083z"/>
									</g>
								</g>
								<g>
									<path style="fill:#CE3434;" d="M392.8,168.502c1.499-5.944,2.076-12.66,1.893-18.766c-0.011-0.378-0.028-0.758-0.049-1.14
										c3.444,6.372,5.101,13.943,4.359,21.762l-1.344,14.151c-0.407,4.283-4.006,7.445-8.038,7.062
										c-2.033-0.193-3.787-1.252-4.976-2.802C388.25,182.316,391.057,175.416,392.8,168.502z"/>
									<path style="fill:#CE3434;" d="M379.183,152.324c-3.368-9.357-9.704-17.254-18.19-20.673
										c3.123-0.559,6.37-0.66,9.673-0.219c5.033,0.673,9.628,2.559,13.591,5.346c0.016,0.731,0.337,1.455,1.091,1.994
										c4.201,3.002,4.362,9.578,4.128,14.456c-0.253,5.261-0.743,10.963-2.279,16.015c-1.03,3.387-2.3,6.757-3.778,10.055
										l1.069-11.253C385.065,161.973,382.953,156.293,379.183,152.324z"/>
									<path style="fill:#CE3434;" d="M331.747,178.227l1.43-15.056c0.208-2.187,0.608-4.306,1.168-6.349
										c4.457-3.463,9.984-4.941,16.035-3.644c0.671,0.144,1.332,0.32,1.987,0.514c-2.264,2.807-3.845,6.279-4.459,10.071
										C341.445,166.753,336.037,172.15,331.747,178.227z"/>
									<path style="fill:#CE3434;" d="M329.02,206.944l1.581-16.644c0.61-1.151,1.241-2.286,1.896-3.4
										c3.786-6.428,8.576-12.782,14.736-16.579l-1.822,19.182C338.735,194.114,333.59,200.236,329.02,206.944z"/>
									<path style="fill:#CE3434;" d="M326.337,235.18l1.63-17.162c4.792-7.936,9.903-15.535,16.754-21.26l-2.25,23.691
										C336.092,223.669,330.948,229.299,326.337,235.18z"/>
									<path style="fill:#CE3434;" d="M327.25,242.705c4.326-5.662,8.833-11.741,14.587-15.587l-2.556,26.903
										c-0.407,4.283-4.006,7.445-8.038,7.062c-4.032-0.383-6.971-4.166-6.565-8.449l0.715-7.524
										C326.018,244.31,326.637,243.507,327.25,242.705z"/>
									<path style="fill:#CE3434;" d="M366.268,146.726c-3.334,0.006-6.465,1.001-9.176,2.72
										c-2.617-1.072-5.343-1.804-8.135-2.111c-4.093-0.451-7.885,0.08-11.321,1.417c3.151-5.664,7.723-10.297,13.14-13.383
										c8.759-0.365,15.767,4.688,20.288,12.014C369.543,146.954,367.937,146.723,366.268,146.726z"/>
								</g>
							</g>
							<g>
								
									<rect x="342.057" y="211.524" transform="matrix(-0.9474 -0.3201 0.3201 -0.9474 590.8841 584.3588)" style="fill:#FFFAEF;" width="2.835" height="64.174"/>
								<g>
									
										<ellipse transform="matrix(0.9408 -0.339 0.339 0.9408 -45.2022 133.4975)" style="fill:#68273D;" cx="359.517" cy="196.134" rx="23.13" ry="23.13"/>
									<path style="fill:#88B423;" d="M374.251,199.043c-2.669-5.071-7.182-8.107-13.061-5.429
										c-1.544,0.704-3.926,2.901-5.776,3.119c-3.302,0.389-6.846-0.516-8.32-3.88c-1.15-2.626-2.222-9.359-6.931-7.827
										c-0.39,0.127-0.765,0.277-1.137,0.433c-0.542,1.043-1.035,2.122-1.423,3.27c-4.089,12.102,2.406,25.228,14.508,29.317
										c11.589,3.916,24.094-1.889,28.727-13.014C377.572,205.038,375.842,202.066,374.251,199.043z"/>
									<path style="fill:#68273D;" d="M370.939,216.211c1.338-0.764,2.605-1.658,3.773-2.679
										c-5.532-6.261-14.306-8.932-22.177-10.924c-5.202-1.316-10.502-2.259-15.787-2.412c0.253,1.41,0.643,2.786,1.147,4.117
										C350.09,205.303,362.452,208.467,370.939,216.211z"/>
									<path style="opacity:0.3;fill:#C100B8;" d="M370.172,175.601c4.092,5.051,6.868,11.184,6.021,17.834
										c-0.975,7.658-5.482,14.414-11.645,18.971c-3.453,2.553-7.4,4.585-11.527,5.922c11.844,3.476,24.422-2.989,28.41-14.789
										C385.136,192.57,380.148,180.761,370.172,175.601z"/>
								</g>
							</g>
							<g>
								<g>
									<g>
										<path style="fill:#FFFAEF;" d="M177.428,285.61L177.428,285.61c-4.091,1.332-8.487-0.904-9.82-4.995l-27.633-84.841
											c-3.167-9.725-13.15-15.922-23.122-13.649c-11.372,2.592-17.846,14.332-14.316,25.172l4.69,14.4
											c1.333,4.091-0.904,8.487-4.995,9.82l0,0c-4.091,1.332-8.487-0.904-9.82-4.995l-4.402-13.516
											c-5.909-18.142,3.12-38.231,21.038-44.788c18.77-6.868,39.407,3.281,45.544,22.124l27.831,85.448
											C183.755,279.881,181.519,284.278,177.428,285.61z"/>
									</g>
								</g>
								<g>
									<path style="fill:#EF592C;" d="M94.034,209.719c-2.816-5.455-4.842-11.885-5.952-17.898
										c-0.069-0.372-0.132-0.748-0.191-1.126c-2.208,7.048-2.312,14.844,0.121,22.311l4.402,13.516
										c1.332,4.091,5.729,6.327,9.82,4.995c2.063-0.672,3.652-2.124,4.552-3.922C101.682,222.143,97.309,216.064,94.034,209.719z
										"/>
									<path style="fill:#EF592C;" d="M104.682,190.667c1.494-9.948,6.369-19.174,14.422-24.532
										c-3.35,0.195-6.732,0.868-10.056,2.084c-5.065,1.853-9.418,4.789-12.925,8.455c0.139,0.718-0.039,1.503-0.704,2.208
										c-3.708,3.933-2.476,10.4-1.196,15.114c1.381,5.084,3.102,10.542,5.766,15.117c1.786,3.067,3.818,6.059,6.049,8.933
										l-3.501-10.748C100.648,201.498,101.625,195.442,104.682,190.667z"/>
									<path style="fill:#EF592C;" d="M159.276,204.723l-4.684-14.38c-0.68-2.089-1.546-4.066-2.56-5.929
										c-5.349-2.327-11.383-2.459-17.367,0.247c-0.663,0.3-1.31,0.63-1.947,0.974c2.94,2.206,5.314,5.226,6.757,8.787
										C146.801,195.809,153.545,199.801,159.276,204.723z"/>
									<path style="fill:#EF592C;" d="M168.21,232.151l-5.178-15.897c-0.876-0.981-1.77-1.941-2.686-2.873
										c-5.285-5.385-11.593-10.459-18.775-12.708l5.967,18.321C155.426,221.915,162.053,226.679,168.21,232.151z"/>
									<path style="fill:#EF592C;" d="M176.994,259.12l-5.339-16.391c-6.647-6.621-13.552-12.835-21.86-16.805l7.37,22.628
										C164.45,250.183,170.971,254.465,176.994,259.12z"/>
									<path style="fill:#EF592C;" d="M177.65,266.693c-5.681-4.508-11.639-9.381-18.411-11.774l8.369,25.696
										c1.333,4.091,5.729,6.327,9.82,4.995c4.091-1.332,6.327-5.729,4.995-9.82l-2.341-7.186
										C179.267,267.97,178.455,267.332,177.65,266.693z"/>
									<path style="fill:#EF592C;" d="M116.853,182.125c3.451-0.786,6.903-0.557,10.073,0.48c2.479-1.67,5.145-3.033,7.968-3.997
										c4.139-1.413,8.175-1.794,12.016-1.304c-4.466-4.789-10.182-8.233-16.444-9.963c-9.141,1.724-15.317,8.329-18.436,16.566
										C113.514,183.126,115.126,182.519,116.853,182.125z"/>
								</g>
							</g>
							<g>
								
									<rect x="176.093" y="185.775" transform="matrix(-0.9927 0.1204 -0.1204 -0.9927 379.9536 412.7729)" style="fill:#FFFAEF;" width="2.835" height="64.174"/>
								<g>
									
										<ellipse transform="matrix(0.6114 -0.7913 0.7913 0.6114 -66.3946 201.0201)" style="fill:#68273D;" cx="171.478" cy="168.112" rx="23.13" ry="23.13"/>
									<path style="fill:#FFB038;" d="M186.023,164.373c-4.598-3.421-9.979-4.211-14.125,0.743
										c-1.089,1.302-2.289,4.312-3.862,5.307c-2.81,1.777-6.397,2.491-9.18,0.093c-2.171-1.871-6.046-7.482-9.631-4.067
										c-0.297,0.283-0.571,0.58-0.838,0.882c-0.038,1.174-0.017,2.361,0.129,3.564c1.538,12.681,13.065,21.715,25.746,20.177
										c12.143-1.472,20.916-12.108,20.29-24.143C191.607,168.346,188.764,166.412,186.023,164.373z"/>
									<path style="fill:#68273D;" d="M190.45,181.288c0.877-1.267,1.634-2.62,2.247-4.046
										c-7.693-3.258-16.761-1.878-24.719-0.276c-5.26,1.059-10.448,2.497-15.281,4.641c0.837,1.162,1.783,2.235,2.812,3.218
										C166.934,180.453,179.451,177.969,190.45,181.288z"/>
									<path style="opacity:0.3;fill:#C100B8;" d="M172.221,144.991c5.872,2.789,11.024,7.122,13.132,13.486
										c2.427,7.328,1.28,15.368-2.311,22.14c-2.012,3.794-4.695,7.331-7.84,10.319c12.184-1.98,20.737-13.242,19.238-25.608
										C193.046,153.835,183.447,145.337,172.221,144.991z"/>
								</g>
							</g>
							<g>
								
									<rect x="249.216" y="155.235" transform="matrix(-1 0.0064 -0.0064 -1 502.4515 373.0487)" style="fill:#FFFAEF;" width="2.835" height="64.174"/>
								<g>
									
										<ellipse transform="matrix(0.9683 -0.2497 0.2497 0.9683 -26.3323 66.8522)" style="fill:#68273D;" cx="250.316" cy="137.208" rx="23.13" ry="23.13"/>
									<path style="fill:#CE3434;" d="M265.193,135.153c-4.177-3.923-9.433-5.322-14.117-0.873
										c-1.231,1.169-2.766,4.023-4.443,4.832c-2.994,1.445-6.64,1.745-9.13-0.955c-1.944-2.107-5.153-8.123-9.105-5.139
										c-0.327,0.247-0.633,0.511-0.933,0.78c-0.172,1.162-0.286,2.344-0.278,3.556c0.081,12.774,10.502,23.064,23.276,22.983
										c12.232-0.078,22.161-9.643,22.912-21.671C270.287,139.737,267.683,137.492,265.193,135.153z"/>
									<path style="fill:#68273D;" d="M267.661,152.463c1.016-1.159,1.922-2.417,2.693-3.763
										c-7.271-4.115-16.437-3.778-24.527-3.094c-5.347,0.452-10.664,1.289-15.71,2.868c0.699,1.25,1.516,2.424,2.426,3.518
										C244.394,148.951,257.113,147.911,267.661,152.463z"/>
									<path style="opacity:0.3;fill:#C100B8;" d="M253.691,114.323c5.515,3.44,10.14,8.333,11.508,14.896
										c1.575,7.557-0.481,15.414-4.821,21.732c-2.431,3.539-5.5,6.748-8.966,9.357c12.33-0.577,22.112-10.791,22.033-23.246
										C273.372,125.485,264.805,115.948,253.691,114.323z"/>
								</g>
							</g>
							<g>
								<g>
									<path style="fill:#88B423;" d="M324.926,249.427l-28.504-13.08c0,0-9.211-7.623,0.449-15.851l27.488,12.757
										C324.359,233.254,335.915,239.832,324.926,249.427z"/>
									<path style="fill:#F9EBAA;" d="M324.439,233.833l-28.264-13.589c0,0-9.072-7.787,0.733-15.84l27.254,13.249
										C324.162,217.651,335.598,224.436,324.439,233.833z"/>
									<path style="fill:#68273D;" d="M324.476,217.745l-28.504-13.08c0,0-9.211-7.623,0.449-15.851l27.488,12.757
										C323.909,201.571,335.464,208.149,324.476,217.745z"/>
									<path style="fill:#88B423;" d="M324.251,201.903l-28.504-13.08c0,0-9.211-7.623,0.449-15.851l27.488,12.757
										C323.684,185.73,335.239,192.308,324.251,201.903z"/>
									<path style="fill:#68273D;" d="M325.317,256.697c-1.516,0.881-21.383,2.378-26.493-1.342
										c-5.559-4.047-8.416-11.57-2.336-19.22l29.041,11.277C325.529,247.411,330.773,253.525,325.317,256.697z"/>
									<path style="fill:#68273D;" d="M323.458,169.888c0,0,10.208-7.804,1.128-15.523c-5.46-4.642-34.778-3.888-30.234,7.509
										C298.897,173.272,323.458,169.888,323.458,169.888z"/>
									<path style="fill:#F9EBAA;" d="M324.025,186.062l-28.504-13.079c0,0-6.828-5.651-2.56-12.474
										c1.339-2.141,4.144-2.85,6.435-1.787l24.062,11.167C323.458,169.888,335.014,176.466,324.025,186.062z"/>
								</g>
								<g style="opacity:0.3;">
									<path style="fill:#C100B8;" d="M316.03,234.333c-1.166,3.393-2.792,6.306-4.805,8.807l13.701,6.287
										c10.988-9.596-0.567-16.174-0.567-16.174l-7.117-3.303C316.917,231.436,316.522,232.9,316.03,234.333z"/>
									<path style="fill:#C100B8;" d="M317.162,230.334l7.277,3.499c11.159-9.397-0.276-16.181-0.276-16.181l-5.627-2.735
										C318.562,220.138,318.298,225.363,317.162,230.334z"/>
									<path style="fill:#C100B8;" d="M318.173,200.396c0.058,4.726,0.343,9.674,0.364,14.623l5.939,2.725
										c10.988-9.596-0.567-16.174-0.567-16.174l-5.749-2.668C318.163,199.406,318.167,199.907,318.173,200.396z"/>
									<path style="fill:#C100B8;" d="M318.162,199.109l6.089,2.794c10.988-9.596-0.567-16.174-0.567-16.174l-5.61-2.603
										C318.217,188.781,318.129,194.252,318.162,199.109z"/>
									<path style="fill:#8A358D;" d="M296.322,253.064c0.744,0.846,1.582,1.62,2.503,2.291c5.11,3.72,24.978,2.224,26.493,1.342
										c5.456-3.172,0.212-9.286,0.212-9.286l-13.549-5.261C308.186,247.333,302.819,250.842,296.322,253.064z"/>
									<path style="fill:#C100B8;" d="M317.205,170.335c3.655-0.092,6.253-0.447,6.253-0.447s10.208-7.804,1.128-15.523
										c-1.964-1.67-7.018-2.636-12.47-2.665C314.887,157.249,316.391,163.691,317.205,170.335z"/>
									<path style="fill:#C100B8;" d="M318.079,183.333l5.947,2.729c10.988-9.595-0.567-16.174-0.567-16.174l-6.767-3.14
										C317.591,172.187,317.945,177.846,318.079,183.333z"/>
								</g>
							</g>
							<g>
								<path style="fill:#FFFAEF;" d="M241.653,238.424c0,0-2.284,9.369-1.145,10.575c1.139,1.206,5.139-2.483,5.42-4.117
									c0.281-1.635-0.281,1.635-0.281,1.635s2.508,10.866,7.464,1.62c0,0,1.64,10.044,7.408,1.947c0,0,3.759,11.418,8.669,0.481
									c0,0,2.712,13.594,8.286,0.751c0,0,3.816,11.091,6.279-1.277L241.653,238.424z"/>
								<path style="fill:#FFFAEF;" d="M251.918,174.803c0,0,0.976-9.594,2.453-10.35c1.476-0.756,4.015,4.056,3.734,5.691
									c-0.281,1.635,0.281-1.635,0.281-1.635s5.993-9.405,7.576,0.966c0,0,4.9-8.919,7.632,0.639c0,0,7.357-9.507,8.332,2.442
									c0,0,7.096-11.908,8.061,2.059c0,0,7.301-9.18,5.492,3.3L251.918,174.803z"/>
								<path style="fill:#FE6F33;" d="M241.653,238.424c0,0-2.476-38.463,10.261-65.559c0,0,33.865,0.773,43.72,4.15
									c0,0,1.648,51.112-11.881,73.023L241.653,238.424z"/>
								<path style="opacity:0.3;fill:#EF592C;" d="M288.776,183.178c-0.224,10.697-2.313,21.55-5.601,31.718
									c-2.636,8.151-7.067,17.822-16.012,20.407c-7.99,2.309-17.387-0.361-25.639-0.081c0.057,2.034,0.13,3.201,0.13,3.201
									l42.1,11.614c13.529-21.91,11.881-73.023,11.881-73.023c-1.719-0.589-4.179-1.097-7.052-1.538
									C288.791,178.061,288.829,180.656,288.776,183.178z"/>
								<g>
									<path style="fill:#FFFAEF;" d="M262.64,229.914c1.986,0.341,3.32,2.228,2.978,4.215c-0.341,1.986-2.229,3.32-4.215,2.978
										c-1.986-0.342-3.32-2.229-2.978-4.215S260.654,229.572,262.64,229.914z"/>
									<path style="fill:#FFFAEF;" d="M254.498,200.911c1.986,0.341,3.32,2.229,2.978,4.215c-0.341,1.986-2.229,3.32-4.215,2.978
										c-1.986-0.342-3.32-2.229-2.978-4.215C250.625,201.903,252.512,200.57,254.498,200.911z"/>
									<path style="fill:#FFFAEF;" d="M250.921,217.8c1.986,0.342,3.32,2.229,2.978,4.215c-0.341,1.986-2.228,3.32-4.215,2.978
										c-1.986-0.342-3.32-2.229-2.978-4.215C247.048,218.792,248.935,217.459,250.921,217.8z"/>
									<path style="fill:#FFFAEF;" d="M256.552,183.087c1.986,0.341,3.32,2.228,2.978,4.215c-0.342,1.986-2.229,3.32-4.215,2.978
										c-1.986-0.341-3.32-2.229-2.978-4.215C252.679,184.079,254.566,182.746,256.552,183.087z"/>
									<path style="fill:#FFFAEF;" d="M272.716,179.134c1.986,0.341,3.32,2.229,2.978,4.215c-0.341,1.986-2.228,3.32-4.215,2.978
										c-1.986-0.341-3.32-2.229-2.978-4.215C268.843,180.126,270.73,178.793,272.716,179.134z"/>
									<path style="fill:#FFFAEF;" d="M272.093,194.511c1.986,0.341,3.32,2.229,2.978,4.215c-0.341,1.986-2.228,3.32-4.215,2.978
										c-1.986-0.341-3.32-2.229-2.978-4.215C268.219,195.503,270.106,194.17,272.093,194.511z"/>
									<path style="fill:#FFFAEF;" d="M270.467,213.755c1.986,0.342,3.32,2.229,2.978,4.215c-0.342,1.986-2.229,3.32-4.215,2.978
										c-1.986-0.341-3.32-2.229-2.978-4.215C266.594,214.747,268.481,213.414,270.467,213.755z"/>
									<path style="fill:#FFFAEF;" d="M280.091,230.221c1.986,0.341,3.32,2.229,2.978,4.215c-0.341,1.986-2.229,3.32-4.215,2.978
										c-1.986-0.342-3.32-2.229-2.978-4.215C276.218,231.213,278.105,229.879,280.091,230.221z"/>
									<path style="fill:#FFFAEF;" d="M286.427,207.074c1.986,0.342,3.32,2.229,2.978,4.215c-0.341,1.986-2.228,3.32-4.215,2.978
										c-1.986-0.342-3.32-2.229-2.978-4.215C282.554,208.066,284.441,206.732,286.427,207.074z"/>
									<path style="fill:#FFFAEF;" d="M288.333,186.195c1.986,0.341,3.32,2.228,2.978,4.215c-0.341,1.986-2.228,3.32-4.215,2.978
										c-1.986-0.342-3.32-2.229-2.978-4.215C284.46,187.187,286.347,185.853,288.333,186.195z"/>
								</g>
							</g>
							<g>
								<path style="fill:#FFFAEF;" d="M174.587,257.712c0,0-1.364,9.547-0.113,10.637c1.251,1.09,4.874-2.97,4.995-4.624
									c0.121-1.654-0.121,1.654-0.121,1.654s3.551,10.572,7.586,0.888c0,0,2.607,9.838,7.562,1.218c0,0,4.85,11,8.675-0.363
									c0,0,4.019,13.267,8.32-0.057c0,0,4.875,10.669,6.125-1.881L174.587,257.712z"/>
								<path style="fill:#FFFAEF;" d="M178.627,193.393c0,0,0.04-9.644,1.436-10.54c1.396-0.896,4.39,3.648,4.269,5.302
									c-0.121,1.654,0.121-1.654,0.121-1.654s5.052-9.943,7.634,0.226c0,0,4.011-9.353,7.659-0.105c0,0,6.399-10.177,8.53,1.622
									c0,0,5.907-12.541,8.223,1.267c0,0,6.375-9.846,5.786,2.752L178.627,193.393z"/>
								<path style="fill:#EF592C;" d="M174.587,257.712c0,0-6.199-38.043,3.848-66.248c0,0,33.782-2.519,43.918-0.114
									c0,0,6.602,50.713-4.736,73.834L174.587,257.712z"/>
								<path style="fill:#FFB038;" d="M219.638,242.339c-0.296,0.44-0.96,0.503-1.368,0.195c-2.446-1.849-4.048-4.872-6.676-6.428
									c-0.87-0.515-6.994,5.081-7.847,5.813c-0.393,0.338-1.068,0.253-1.372-0.163c-2.131-2.921-4.627-5.409-7.397-7.701
									c-2.364,2.469-5.089,4.48-7.845,6.511c-0.458,0.337-0.996,0.233-1.372-0.163c-2.418-2.551-4.546-5.35-6.82-8.027
									c-1.73,2.19-3.89,3.949-6.107,5.641c0.045,1.212,0.097,2.401,0.159,3.533c0.857-0.731,1.711-1.465,2.555-2.212
									c0.409-0.362,1.043-0.224,1.372,0.163c2.483,2.926,4.201,6.34,6.375,9.474c2.969-2.034,5.316-4.658,7.635-7.424
									c0.365-0.436,0.896-0.488,1.368-0.195c3.595,2.229,5.76,5.468,7.52,9.17c3.422-2.381,6.843-4.762,10.265-7.142
									c0.508-0.354,1.243-0.229,1.5,0.378c1.306,3.09,2.405,6.251,4.221,9.077c2.483-1.937,4.855-3.941,6.98-6.281
									c0.377-2.592,0.665-5.253,0.886-7.939C222.09,239.563,220.733,240.711,219.638,242.339z"/>
								<path style="fill:#FFB038;" d="M218.851,207.588c-0.384,0.251-0.719,0.237-1.135,0.073c-0.992-0.39-1.57-1.591-2.298-2.317
									c-1.283-1.279-2.623-2.424-4.043-3.516c-1.91,2.408-4.582,3.874-7.281,5.35c-0.369,0.202-0.919,0.039-1.157-0.291
									c-1.212-1.679-3.261-5.044-5.759-3.611c-1.647,0.945-3.005,2.341-4.378,3.632c-0.358,0.337-1.108,0.262-1.372-0.163
									c-0.857-1.38-2.603-4.637-4.746-3.539c-1.476,0.757-2.512,1.977-3.56,3.232c-0.398,0.476-1.148,0.539-1.549,0.018
									c-1.641-2.137-3.746-3.661-5.959-5.068c-0.522,2.346-0.965,4.718-1.329,7.095c1.557,1.832,3.243,3.594,5.047,5.141
									c1.7,1.458,1.577,0.877,3.225-0.557c1.19-1.035,2.393-2.05,3.617-3.046c0.39-0.317,1.078-0.274,1.372,0.163
									c1.312,1.951,2.541,3.945,3.976,5.803c2.346-1.877,4.901-3.469,7.196-5.416c0.428-0.363,1.022-0.217,1.372,0.163
									c1.746,1.898,2.929,4.065,4.127,6.307c3.111-1.282,5.828-3.076,8.04-5.677c0.391-0.46,1.16-0.556,1.549-0.018
									c1.351,1.871,2.803,3.663,4.179,5.515c2.051-1.423,3.964-3.023,6.044-4.384c-0.114-2.715-0.26-5.27-0.419-7.605
									C221.998,205.731,220.388,206.584,218.851,207.588z"/>
								<path style="opacity:0.3;fill:#C100B8;" d="M216.126,198.15c0.815,10.669-0.21,21.674-2.496,32.113
									c-1.833,8.369-5.304,18.424-13.956,21.866c-7.729,3.074-17.34,1.329-25.527,2.409c0.254,2.019,0.44,3.174,0.44,3.174
									l43.03,7.472c11.338-23.121,4.736-73.834,4.736-73.834c-1.768-0.42-4.266-0.687-7.168-0.846
									C215.644,193.056,215.934,195.635,216.126,198.15z"/>
							</g>
							<g>
								<path style="fill:#68273D;" d="M238.696,186.021c0.73-1.284,7.572-12.089,4.768-12.783c-2.804-0.694-4.004,5.007-6.55,1.674
									c-2.092-2.739-5.538-4.006-7.128-1.353c-2.926,4.884-4.053,0.095-7.074,0.926c-3.022,0.831,7.16,13.517,7.16,13.517
									l9.1-0.974"/>
								<path style="fill:#68273D;" d="M246.463,256.643c0.884,1.184,9.015,11.055,6.318,12.093
									c-2.696,1.037-4.595-4.471-6.707-0.848c-1.736,2.977-4.998,4.663-6.905,2.228c-3.51-4.483-4.033,0.409-7.135-0.041
									c-3.101-0.45,5.427-14.301,5.427-14.301l9.151-0.163"/>
								<g>
									<path style="fill:#68273D;" d="M231.967,185.014l4.7-0.342c5.417-0.395,10.189,3.533,10.844,8.925l6.269,51.647
										c0.689,5.678-3.434,10.809-9.127,11.358l-7.228,0.697c-5.692,0.549-10.72-3.697-11.13-9.401l-3.741-52.002
										C222.152,190.292,226.364,185.422,231.967,185.014z"/>
									<path style="fill:#FFB038;" d="M228.99,242.725c0.386-0.404,1.042-0.442,1.391,0.044c1.124,1.568,2.261,2.536,3.895,3.253
										c0.73-1.194,1.443-2.398,2.185-3.585c0.306-0.489,0.863-0.681,1.357-0.31c1.317,0.991,2.495,2.233,3.87,3.137
										c0.881,0.579,3.094-3.571,3.443-4.097c0.254-0.383,0.912-0.422,1.237-0.119c0.628,0.585,4.424,4.678,5.27,3.526
										c0.608-0.827,1.18-1.677,1.756-2.525l-5.119-42.169c-0.684,0.83-1.365,1.662-2.078,2.472
										c-0.347,0.394-0.822,0.382-1.237,0.119c-1.392-0.879-2.528-1.892-3.613-3.053c-0.953,1.025-1.869,2.077-2.764,3.159
										c-0.302,0.365-0.872,0.43-1.237,0.119c-0.431-0.367-3.715-3.406-4.294-2.704l-2.563,3.111
										c-0.234,0.284-0.709,0.434-1.047,0.239c-1.249-0.72-2.644-1.447-3.642-2.507c-0.473-0.502-1.865,1.368-2.701,2.596
										l3.034,42.163C227.12,244.678,228.041,243.717,228.99,242.725z"/>
									<path style="fill:#591F34;" d="M252.129,231.641l-2.62-21.584c-8.457,1.653-17.036,2.598-25.755,2.514l1.526,21.21
										C234.033,234.288,243.272,233.683,252.129,231.641z"/>
									<path style="opacity:0.3;fill:#C100B8;" d="M247.511,193.596c-0.465-3.833-3.017-6.917-6.397-8.243
										c0.034,0.163,0.023,0.339,0.048,0.532c1.859,14.296,3.215,25.022,4.951,37.245c1.297,9.125,3.003,19.563-4.171,26.569
										c-2.889,2.821-6.489,4.969-10.404,6.384c1.733,0.957,3.764,1.421,5.887,1.216l7.228-0.697
										c5.693-0.549,9.816-5.68,9.127-11.358L247.511,193.596z"/>
								</g>
							</g>
						</g>
					</g>
				</g>
				<g>
					<g>
						<g>
							<path style="fill:#FE6F33;" d="M412.554,415.781c-0.17,0.61-0.39,1.29-0.67,2.02c-2.24,5.97-8.27,15.48-24.54,22.8
								c-0.68,0.31-1.38,0.61-2.09,0.9c-0.54,0.23-1.1,0.45-1.66,0.67c-1.99,0.78-4.25,0.58-6.01-0.64
								c-5.8-4.02-17.68-14.76-10.72-31.95c0.67-1.65,1.99-2.92,3.64-3.55c0.16-0.07,0.32-0.13,0.49-0.18
								c0.74-0.22,1.62-0.47,2.61-0.73c0.49-0.12,1-0.25,1.53-0.38c0.01,0,0.01,0,0.02-0.01c0.53-0.12,1.09-0.25,1.67-0.37
								c4.955-1.084,11.434-1.987,17.792-1.425c-0.001-0.002-0.001-0.003-0.002-0.005c0.74,0.06,1.47,0.15,2.21,0.25
								c1.09,0.15,2.17,0.36,3.23,0.62c0.01,0,0.02,0.01,0.02,0.01c0.36,0.09,0.72,0.18,1.07,0.28c0.07,0.02,0.14,0.04,0.21,0.06
								c0.28,0.08,0.56,0.17,0.84,0.26c0.6,0.2,1.2,0.42,1.78,0.65c0.18,0.07,0.36,0.15,0.53,0.23c0.27,0.11,0.54,0.23,0.8,0.36
								c0.31,0.15,0.61,0.3,0.91,0.46c0.04,0.02,0.07,0.04,0.1,0.05c0.26,0.14,0.5,0.28,0.75,0.43c0.33,0.19,0.66,0.4,0.98,0.61
								c0.19,0.12,0.37,0.25,0.55,0.38c0.18,0.13,0.37,0.26,0.55,0.4c0.24,0.18,0.48,0.37,0.72,0.57c0.01,0.01,0.02,0.02,0.03,0.03
								c0.28,0.23,0.55,0.47,0.82,0.72c1.04,0.96,1.71,2.21,1.96,3.55C412.864,413.801,412.834,414.801,412.554,415.781z"/>
							<path style="fill:#F9EBAA;" d="M387.344,440.601c-0.68,0.31-1.38,0.61-2.09,0.9c-0.54,0.23-1.1,0.45-1.66,0.67
								c-1.99,0.78-4.25,0.58-6.01-0.64c-5.8-4.02-17.68-14.76-10.72-31.95c0.67-1.65,1.99-2.92,3.64-3.55
								c0.16-0.07,0.32-0.13,0.49-0.18c0.74-0.22,1.62-0.47,2.61-0.73c0.49-0.12,1-0.25,1.53-0.38c0.01,0,0.01,0,0.02-0.01
								c0.53-0.12,1.09-0.25,1.67-0.37c0.86,1.83,1.72,3.67,2.55,5.53c2.01,4.47,4.37,9.4,6.05,14.48
								C387.224,429.741,388.264,435.281,387.344,440.601z"/>
							<path style="fill:#FFB038;" d="M412.554,415.781c-0.17,0.61-0.39,1.29-0.67,2.02c-1.19,3.16-3.46,7.31-7.73,11.6
								c-0.21-2.51-0.73-4.99-1.46-7.44c-1.93-6.57-5.33-12.92-8.08-19.03c0.74,0.06,1.47,0.15,2.21,0.25
								c1.09,0.16,2.17,0.36,3.23,0.62c0.01,0,0.02,0.01,0.02,0.01c0.36,0.09,0.72,0.18,1.07,0.28c0.07,0.02,0.14,0.04,0.21,0.06
								c0.28,0.08,0.56,0.17,0.84,0.26c0.6,0.2,1.2,0.42,1.78,0.65c0.18,0.07,0.36,0.15,0.53,0.23c0.27,0.11,0.54,0.23,0.8,0.36
								c0.31,0.15,0.61,0.3,0.91,0.46c0.04,0.02,0.07,0.04,0.1,0.05c0.26,0.14,0.5,0.28,0.75,0.43c0.33,0.19,0.66,0.4,0.98,0.61
								c0.19,0.12,0.37,0.25,0.55,0.38c0.18,0.13,0.37,0.26,0.55,0.4c0.24,0.18,0.48,0.37,0.72,0.57c0.01,0.01,0.02,0.02,0.03,0.03
								c0.28,0.23,0.55,0.47,0.82,0.72c1.04,0.96,1.71,2.21,1.96,3.55C412.864,413.801,412.834,414.801,412.554,415.781z"/>
						</g>
						<path style="opacity:0.3;fill:#C100B8;" d="M412.554,415.781c-0.17,0.61-0.39,1.29-0.67,2.02
							c-2.24,5.97-8.27,15.48-24.54,22.8c-0.68,0.31-1.38,0.61-2.09,0.9c-0.54,0.23-1.1,0.45-1.66,0.67
							c-1.99,0.78-4.25,0.58-6.01-0.64c-5.8-4.02-17.68-14.76-10.72-31.95c0.67-1.65,1.99-2.92,3.64-3.55
							c0.02,5.31,2.42,10.71,6.51,14.16c2.44,2.06,5.33,3.44,8.41,4.18c4.95,1.18,10.37,0.7,15.08-1.33
							c0.75-0.32,1.48-0.68,2.19-1.08c3.98-2.18,7.36-5.37,9.98-9.11C412.864,413.801,412.834,414.801,412.554,415.781z"/>
					</g>
					<g>
						<g>
							<path style="fill:#FFB038;" d="M369.724,438.141c-0.01,0.13-0.03,0.27-0.05,0.41c-0.15,1.16-0.34,2.37-0.56,3.6
								c-0.38,2.11-1.74,3.93-3.7,4.79c-6.46,2.83-21.83,7.33-32.83-7.61c-1.15-1.57-1.51-3.59-1.01-5.47
								c0.11-0.41,0.24-0.87,0.38-1.35c0.12-0.43,0.26-0.89,0.41-1.38c0.13-0.44,0.27-0.9,0.43-1.38c0.09-0.26,0.18-0.53,0.27-0.81
								c0.1-0.27,0.19-0.55,0.29-0.83c1.673-4.785,4.306-10.769,8.122-15.897c-0.007-0.001-0.015-0.002-0.022-0.003
								c0.156-0.21,0.324-0.41,0.483-0.617c0.21-0.272,0.417-0.544,0.634-0.81c0.551-0.677,1.119-1.341,1.722-1.973
								c0.25-0.27,0.51-0.53,0.77-0.79c0.26-0.26,0.53-0.51,0.8-0.76c0.27-0.25,0.54-0.49,0.82-0.73c0.27-0.23,0.54-0.45,0.82-0.67
								c0.3-0.23,0.6-0.46,0.91-0.68c0.29-0.2,0.58-0.41,0.88-0.6c0.37-0.24,0.74-0.47,1.12-0.69c0.18-0.1,0.36-0.2,0.54-0.3
								c0.12-0.06,0.24-0.13,0.37-0.19c0.51-0.26,1.02-0.5,1.54-0.72c0.13-0.05,0.27-0.11,0.4-0.16c0.67-0.27,1.35-0.5,2.05-0.69
								c2.34-0.65,4.84,0.04,6.49,1.83c0.05,0.05,0.1,0.11,0.15,0.17c0.39,0.42,0.8,0.91,1.22,1.46c0.16,0.2,0.32,0.42,0.48,0.64
								c0.16,0.22,0.32,0.45,0.49,0.69c0.13,0.19,0.26,0.39,0.4,0.6c0.03,0.05,0.06,0.1,0.09,0.15c0.34,0.51,0.66,1.05,0.98,1.64
								v0.01C368.794,414.761,371.554,424.051,369.724,438.141z"/>
							<path style="fill:#68273D;" d="M369.734,438.141c-0.02,0.14-0.04,0.27-0.06,0.41c-0.15,1.16-0.34,2.37-0.56,3.6
								c-0.38,2.11-1.74,3.93-3.7,4.79c-6.46,2.83-21.83,7.33-32.83-7.61c-1.15-1.57-1.51-3.59-1.01-5.47
								c0.11-0.41,0.24-0.87,0.38-1.35c0.12-0.43,0.26-0.89,0.41-1.38c0.13-0.44,0.28-0.9,0.43-1.38c0.09-0.26,0.18-0.53,0.27-0.81
								c0.1-0.27,0.19-0.55,0.29-0.83c2.01,0.24,4.03,0.46,6.05,0.72c5.43,0.71,11.58,1.35,17.33,2.89c4.84,1.3,9.4,3.24,12.99,6.42
								H369.734z"/>
							<path style="fill:#68273D;" d="M369.004,417.951c-1.93-0.98-3.97-1.76-6.07-2.37c-6.89-2.04-14.49-2.47-21.48-3.37
								c0.88-1.19,1.82-2.33,2.84-3.4c0.25-0.27,0.51-0.53,0.77-0.79c0.26-0.26,0.53-0.51,0.8-0.76c0.27-0.25,0.54-0.49,0.82-0.73
								c0.27-0.23,0.54-0.45,0.82-0.67c0.3-0.23,0.6-0.46,0.91-0.68c0.29-0.2,0.58-0.41,0.88-0.6c0.37-0.24,0.74-0.47,1.12-0.69
								c0.18-0.1,0.36-0.2,0.54-0.3c0.12-0.06,0.24-0.13,0.37-0.19c0.51-0.26,1.02-0.5,1.54-0.72c0.13-0.05,0.27-0.11,0.4-0.16
								c0.67-0.27,1.35-0.5,2.05-0.69c2.34-0.65,4.84,0.04,6.49,1.83c0.05,0.05,0.1,0.11,0.15,0.17c0.39,0.42,0.8,0.91,1.22,1.46
								c0.16,0.2,0.32,0.42,0.48,0.64c0.16,0.22,0.32,0.45,0.49,0.69c0.13,0.19,0.26,0.39,0.4,0.6c0.03,0.05,0.06,0.1,0.09,0.15
								c0.32,0.51,0.65,1.06,0.98,1.64v0.01C366.904,411.381,368.134,414.331,369.004,417.951z"/>
						</g>
						<path style="opacity:0.3;fill:#C100B8;" d="M369.724,438.141h0.01c-0.02,0.14-0.04,0.27-0.06,0.41
							c-0.15,1.16-0.34,2.37-0.56,3.6c-0.38,2.11-1.74,3.93-3.7,4.79c-6.46,2.83-21.83,7.33-32.83-7.61
							c-1.15-1.57-1.51-3.59-1.01-5.47c0.11-0.41,0.24-0.87,0.38-1.35c3.76,2.9,7.9,5.09,12.55,5.12c4.76,0.03,9.03-2.35,12.23-5.91
							c2.67-2.95,4.6-6.7,5.47-10.56c0.42-1.85,0.65-3.71,0.73-5.58c0.18-3.9-0.26-7.84-0.98-11.75c0.39,0.42,0.8,0.91,1.22,1.46
							c0.16,0.2,0.32,0.42,0.48,0.64c0.16,0.22,0.32,0.45,0.49,0.69c0.13,0.19,0.26,0.39,0.4,0.6c0.03,0.05,0.06,0.1,0.09,0.15
							c0.34,0.51,0.66,1.05,0.98,1.64v0.01C368.794,414.761,371.554,424.051,369.724,438.141z"/>
					</g>
					<g>
						<g>
							<path style="fill:#68273D;" d="M151.745,423.922c0.586,7.188-1.332,16.031-11.247,22.726
								c-1.615,1.085-3.646,1.36-5.505,0.783c-1.172-0.361-2.655-0.859-4.33-1.492c-6.042-2.267-14.582-6.321-20.483-12.558
								c-0.028-0.03-0.056-0.06-0.084-0.09c-0.496-0.529-0.972-1.073-1.427-1.633c-0.067-0.082-0.135-0.162-0.201-0.244
								c-0.483-0.609-0.949-1.229-1.376-1.875c-0.015-0.038-0.039-0.065-0.065-0.102c-0.194-0.306-0.389-0.612-0.575-0.929
								c-0.196-0.316-0.372-0.634-0.538-0.954c-0.176-0.319-0.343-0.648-0.491-0.981c-0.025-0.037-0.041-0.075-0.056-0.113
								c-0.142-0.293-0.264-0.589-0.387-0.885c-0.107-0.258-0.214-0.515-0.301-0.776c-0.212-0.576-0.406-1.165-0.562-1.769
								c0,0,0,0-0.001-0.01c-0.059-0.204-0.108-0.409-0.157-0.614c-0.554-2.366,0.24-4.83,2.09-6.403
								c0.289-0.243,0.597-0.498,0.934-0.757c0.045-0.037,0.092-0.064,0.138-0.1c0.191-0.148,0.392-0.298,0.603-0.448
								c0.184-0.127,0.377-0.265,0.581-0.395c0.258-0.178,0.517-0.345,0.796-0.516c5.549-3.486,15.578-7.066,31.718-4.315
								c0.424,0.072,0.848,0.143,1.275,0.235c0.352,0.062,0.704,0.123,1.069,0.203c0.54,0.106,1.091,0.22,1.644,0.345
								c2.086,0.474,3.852,1.902,4.627,3.894C150.347,416.484,151.429,419.948,151.745,423.922z"/>
							<path style="fill:#88B423;" d="M151.745,423.922c0.586,7.188-1.332,16.031-11.247,22.726
								c-1.615,1.085-3.646,1.36-5.505,0.783c-1.172-0.361-2.655-0.859-4.33-1.492c-0.437-0.161-0.876-0.342-1.335-0.519
								c0.314-2.003,0.619-4.005,0.963-6.012c0.257-1.48,0.505-3.02,0.769-4.592c1.54-8.951,3.585-18.902,9.759-25.344
								c0.424,0.072,0.848,0.143,1.275,0.235c0.352,0.062,0.704,0.123,1.069,0.203c0.54,0.106,1.091,0.22,1.644,0.345
								c2.086,0.474,3.852,1.902,4.627,3.894C150.347,416.484,151.429,419.948,151.745,423.922z"/>
							<path style="fill:#88B423;" d="M120.621,409.391c-3.56,6.357-4.808,14.005-5.933,21.383
								c-0.306,1.992-0.603,3.973-0.929,5.897c-2.552-2.065-4.874-4.435-6.667-7.132c-0.015-0.038-0.039-0.065-0.065-0.102
								c-0.194-0.306-0.389-0.612-0.575-0.929c-0.196-0.316-0.372-0.634-0.538-0.954c-0.176-0.319-0.343-0.648-0.491-0.981
								c-0.025-0.037-0.041-0.075-0.056-0.113c-0.142-0.293-0.264-0.589-0.387-0.885c-0.107-0.258-0.214-0.515-0.301-0.776
								c-0.212-0.576-0.406-1.165-0.562-1.769c0,0,0,0-0.001-0.01c-0.059-0.204-0.108-0.409-0.157-0.614
								c-0.554-2.366,0.24-4.83,2.09-6.403c0.289-0.243,0.597-0.498,0.934-0.757c0.045-0.037,0.092-0.064,0.138-0.1
								c0.191-0.148,0.392-0.298,0.603-0.448c0.184-0.127,0.377-0.265,0.581-0.395c0.258-0.178,0.517-0.345,0.796-0.516
								C111.811,412.093,115.59,410.381,120.621,409.391z"/>
						</g>
						<path style="opacity:0.3;fill:#C100B8;" d="M151.745,423.922c0.586,7.188-1.332,16.031-11.247,22.726
							c-1.615,1.085-3.646,1.36-5.505,0.783c-1.172-0.361-2.655-0.859-4.33-1.492c-6.042-2.267-14.582-6.321-20.483-12.558
							c-0.028-0.03-0.056-0.06-0.084-0.09c-0.496-0.529-0.972-1.073-1.427-1.633c-0.067-0.082-0.135-0.162-0.201-0.244
							c-0.483-0.609-0.949-1.229-1.376-1.875c-0.015-0.038-0.039-0.065-0.065-0.102c-0.194-0.306-0.389-0.612-0.575-0.929
							c-0.196-0.316-0.372-0.634-0.538-0.954c-0.176-0.319-0.343-0.648-0.491-0.981c-0.025-0.037-0.041-0.075-0.056-0.113
							c-0.142-0.293-0.264-0.589-0.387-0.885c-0.107-0.258-0.214-0.515-0.301-0.776c-0.212-0.576-0.406-1.165-0.562-1.769
							c2.253,2.521,5.066,4.65,7.97,6.343c0.847,0.497,1.72,0.96,2.6,1.402c5.1,2.515,10.77,4.061,16.372,4.042
							c2.936-0.019,5.855-0.449,8.66-1.398C144.626,431.759,148.985,428.279,151.745,423.922z"/>
					</g>
				</g>
			</g>
		</g>
	</g>
</g>
</svg>
